<svg xmlns="http://www.w3.org/2000/svg" direction="ltr" width="1024" height="1024" viewBox="11227.035689841481 -830.4919236808014 1024 1024" stroke-linecap="round" stroke-linejoin="round" style="background-color: transparent;" data-color-mode="light" class="tl-container tl-theme__force-sRGB tl-theme__light"><defs/><g transform="matrix(1, 0, 0, 1, 11227.0357, -830.4919)" opacity="1"><g data-lovart-layer-name="SVG 3"><g transform="scale(1, 1)"><g>
<g xmlns="http://www.w3.org/2000/svg" stroke-width="2.00" fill="none" stroke-linecap="butt">
<path stroke="#8a8984" vector-effect="non-scaling-stroke" d="   M 504.06 507.35   Q 501.54 509.76 497.71 512.21   Q 480.27 523.36 460.99 524.60   Q 446.76 525.52 439.29 524.64   C 409.66 521.12 381.66 504.92 365.08 479.94   Q 349.62 456.63 352.32 428.49   C 354.51 405.70 366.94 383.88 384.44 369.20   Q 386.13 367.79 396.75 359.50   C 399.72 357.18 401.93 352.40 399.49 348.80   C 396.91 344.99 391.78 343.61 387.50 343.95   C 357.45 346.37 329.69 364.47 313.05 389.12   C 277.42 441.89 289.92 512.97 331.02 559.23   C 351.64 582.44 376.50 598.83 405.01 610.24   C 517.58 655.31 651.21 616.20 707.98 504.99   C 737.55 447.04 739.06 377.41 712.87 318.17   Q 697.60 283.61 672.25 254.93   Q 655.70 236.19 632.88 220.81   Q 601.54 199.68 565.32 188.18   Q 548.79 182.93 531.97 178.80   C 507.32 172.74 482.32 172.84 455.72 173.01   C 432.98 173.16 412.56 177.43 394.10 189.14   Q 387.98 193.03 375.45 204.52   Q 365.30 213.83 346.45 229.20   Q 338.33 235.82 329.51 245.00   C 323.46 251.31 317.50 259.32 317.54 268.33   C 317.60 281.90 328.44 288.16 340.06 292.20   Q 387.66 308.71 437.71 309.08   C 454.85 309.21 472.96 305.63 489.24 306.20   Q 498.22 306.52 504.49 310.51   C 509.72 313.84 514.92 320.72 514.44 327.26   C 514.09 331.91 511.34 336.98 507.58 339.81   C 502.48 343.64 492.77 342.50 487.09 340.67   Q 484.22 339.74 480.10 336.93   C 474.74 333.28 469.35 329.58 462.69 329.90   C 452.73 330.37 453.23 341.63 459.09 346.43   Q 463.06 349.67 466.47 351.05   Q 473.90 354.04 479.51 357.65   A 0.84 0.84 0.0 0 1 479.45 359.10   Q 477.01 360.41 474.47 360.99   Q 465.89 362.96 461.50 363.78   C 456.91 364.62 450.88 366.75 448.47 370.63   Q 445.48 375.45 449.00 379.91   C 454.30 386.62 466.12 381.49 473.11 379.11   Q 480.17 376.70 487.55 376.75   A 0.42 0.42 0.0 0 1 487.93 377.34   C 485.35 382.84 480.25 387.84 476.52 392.51   C 466.85 404.59 479.10 414.98 490.15 405.37   C 494.95 401.19 497.47 395.78 499.98 390.00   C 502.45 384.34 505.16 381.61 511.51 382.05   Q 515.94 382.36 518.87 382.65   C 533.91 384.11 548.17 375.77 558.18 365.32   A 0.45 0.45 0.0 0 1 558.95 365.55   C 563.03 387.88 563.51 410.76 558.77 433.00   A 0.44 0.43 20.1 0 1 558.14 433.29   Q 542.72 425.20 525.09 426.09   Q 515.65 426.57 508.91 429.90   C 495.25 436.64 489.22 452.55 485.28 466.39   A 0.50 0.50 0.0 0 1 484.44 466.60   Q 477.46 459.52 471.94 451.21   C 468.57 446.15 463.49 441.07 457.41 440.86   C 453.39 440.72 449.30 443.29 448.88 447.39   C 447.53 460.34 462.27 465.86 469.44 475.71   A 0.64 0.64 0.0 0 1 469.17 476.68   Q 468.88 476.81 467.88 476.87   C 462.88 477.21 457.04 476.77 450.51 475.75   C 444.05 474.74 433.08 473.43 430.56 481.83   C 427.21 493.03 440.84 495.51 448.26 494.88   Q 459.90 493.90 471.04 496.11   A 0.38 0.38 0.0 0 1 471.28 496.70   Q 470.84 497.33 470.10 497.83   C 463.23 502.49 458.22 504.71 455.71 509.18   C 453.82 512.52 454.42 516.99 457.79 519.16   C 464.87 523.73 474.74 516.52 480.05 513.29   Q 487.03 509.05 495.34 508.55   C 497.98 508.40 501.37 507.68 503.87 507.02   A 0.20 0.20 0.0 0 1 504.06 507.35"/>
<path stroke="#8a8984" vector-effect="non-scaling-stroke" d="   M 756.39 746.24   C 750.27 752.57 743.88 756.62 734.66 757.09   C 717.20 757.98 704.63 744.83 704.39 727.74   Q 704.18 712.79 714.53 703.94   C 722.47 697.15 732.17 695.26 742.07 698.28   C 746.18 699.54 750.78 702.78 754.20 705.62   A 0.68 0.68 0.0 0 0 755.15 705.55   L 762.99 696.71   A 0.82 0.81 47.4 0 0 763.03 695.67   Q 761.91 694.18 759.53 692.43   C 728.91 669.94 687.98 691.77 690.36 729.67   C 691.61 749.55 705.03 766.66 725.05 769.89   Q 748.67 773.70 764.75 756.75   A 1.03 1.02 -43.0 0 0 764.80 755.39   L 757.21 746.27   A 0.55 0.55 0.0 0 0 756.39 746.24"/>
<path stroke="#8a8984" vector-effect="non-scaling-stroke" d="   M 292.75 698.46   Q 292.59 698.84 292.29 699.29   Q 288.26 705.40 253.35 756.86   C 250.83 760.57 251.50 764.56 251.50 768.71   A 0.43 0.42 0.0 0 0 251.93 769.13   L 312.30 769.13   A 0.65 0.65 0.0 0 0 312.95 768.48   L 312.95 756.79   A 0.60 0.59 -90.0 0 0 312.36 756.19   L 270.41 756.19   A 0.24 0.23 -72.7 0 1 270.22 755.82   Q 289.91 726.95 309.86 697.86   C 311.68 695.20 311.17 688.80 310.88 685.75   A 0.76 0.76 0.0 0 0 310.12 685.06   L 252.76 685.06   A 0.81 0.81 0.0 0 0 251.95 685.87   L 251.95 697.17   A 0.72 0.72 0.0 0 0 252.67 697.89   L 292.38 697.89   A 0.41 0.40 -78.4 0 1 292.75 698.46"/>
<path stroke="#8a8984" vector-effect="non-scaling-stroke" d="   M 334.61 685.08   A 0.59 0.59 0.0 0 0 334.02 685.67   L 334.02 768.57   A 0.59 0.59 0.0 0 0 334.61 769.16   L 385.54 769.16   A 0.59 0.59 0.0 0 0 386.13 768.57   L 386.13 756.79   A 0.59 0.59 0.0 0 0 385.54 756.20   L 348.54 756.20   A 0.59 0.59 0.0 0 1 347.95 755.61   L 347.95 733.70   A 0.59 0.59 0.0 0 1 348.54 733.11   L 379.50 733.11   A 0.59 0.59 0.0 0 0 380.09 732.52   L 380.09 721.20   A 0.59 0.59 0.0 0 0 379.50 720.61   L 348.58 720.61   A 0.59 0.59 0.0 0 1 347.99 720.02   L 347.99 698.48   A 0.59 0.59 0.0 0 1 348.58 697.89   L 384.41 697.89   A 0.59 0.59 0.0 0 0 385.00 697.30   L 385.00 685.67   A 0.59 0.59 0.0 0 0 384.41 685.08   L 334.61 685.08"/>
<path stroke="#8a8984" vector-effect="non-scaling-stroke" d="   M 436.92 731.06   C 446.92 744.84 455.84 757.50 463.52 768.10   A 1.81 1.59 84.5 0 0 463.99 768.54   Q 465.00 769.18 467.01 769.18   Q 474.26 769.17 476.68 769.15   A 0.58 0.57 89.5 0 0 477.24 768.57   L 477.24 685.55   A 0.61 0.61 0.0 0 0 476.63 684.94   L 464.08 684.94   A 0.59 0.59 0.0 0 0 463.49 685.53   L 463.49 743.72   A 0.32 0.32 0.0 0 1 462.91 743.90   Q 449.44 725.31 447.75 722.99   C 437.74 709.21 428.82 696.55 421.14 685.95   A 1.81 1.59 84.5 0 0 420.67 685.51   Q 419.66 684.87 417.65 684.87   Q 410.40 684.88 407.98 684.90   A 0.58 0.57 89.5 0 0 407.42 685.48   L 407.42 768.50   A 0.61 0.61 0.0 0 0 408.03 769.11   L 420.58 769.11   A 0.59 0.59 0.0 0 0 421.17 768.52   L 421.17 710.33   A 0.32 0.32 0.0 0 1 421.76 710.14   Q 435.23 728.73 436.92 731.06"/>
<path stroke="#8a8984" vector-effect="non-scaling-stroke" d="   M 552.88 769.16   A 0.32 0.32 0.0 0 0 553.20 768.84   L 553.20 756.52   A 0.32 0.32 0.0 0 0 552.88 756.20   L 516.41 756.20   A 0.32 0.32 0.0 0 1 516.09 755.88   L 516.09 733.43   A 0.32 0.32 0.0 0 1 516.41 733.11   L 547.27 733.11   A 0.32 0.32 0.0 0 0 547.59 732.79   L 547.59 720.95   A 0.32 0.32 0.0 0 0 547.27 720.63   L 516.43 720.63   A 0.32 0.32 0.0 0 1 516.11 720.31   L 516.11 698.23   A 0.32 0.32 0.0 0 1 516.43 697.91   L 552.00 697.91   A 0.32 0.32 0.0 0 0 552.32 697.59   L 552.32 685.36   A 0.32 0.32 0.0 0 0 552.00 685.04   L 502.60 685.04   A 0.32 0.32 0.0 0 0 502.28 685.36   L 502.28 768.84   A 0.32 0.32 0.0 0 0 502.60 769.16   L 552.88 769.16"/>
<path stroke="#8a8984" vector-effect="non-scaling-stroke" d="   M 604.08 769.17   Q 607.44 769.16 610.69 769.12   A 0.25 0.25 0.0 0 0 610.94 768.87   L 610.94 698.66   A 0.81 0.80 -0.0 0 1 611.75 697.86   L 636.98 697.86   A 0.59 0.59 0.0 0 0 637.57 697.27   L 637.57 685.30   A 0.36 0.35 0.2 0 0 637.22 684.95   Q 606.43 685.07 603.94 685.07   Q 601.44 685.08 570.66 685.06   A 0.36 0.35 -0.4 0 0 570.31 685.41   L 570.35 697.38   A 0.59 0.59 0.0 0 0 570.94 697.97   L 596.17 697.89   A 0.81 0.80 -0.2 0 1 596.98 698.68   L 597.22 768.89   A 0.25 0.25 0.0 0 0 597.47 769.15   Q 600.72 769.18 604.08 769.17"/>
<path stroke="#8a8984" vector-effect="non-scaling-stroke" d="   M 669.91 685.84   A 0.77 0.77 0.0 0 0 669.14 685.07   L 656.68 685.07   A 0.77 0.77 0.0 0 0 655.91 685.84   L 655.91 768.44   A 0.77 0.77 0.0 0 0 656.68 769.21   L 669.14 769.21   A 0.77 0.77 0.0 0 0 669.91 768.44   L 669.91 685.84"/>
<path stroke="#8a8984" vector-effect="non-scaling-stroke" d="   M 691.83 821.13   L 697.72 816.23   A 1.14 1.14 0.0 0 0 697.92 814.68   Q 690.22 804.12 677.70 805.10   C 667.33 805.91 660.16 813.05 661.79 823.88   C 663.36 834.22 674.92 836.42 682.86 839.45   Q 687.01 841.04 688.21 843.10   C 690.39 846.83 688.42 852.27 683.97 853.40   C 675.90 855.45 670.69 852.17 666.65 845.70   A 0.77 0.77 0.0 0 0 665.42 845.60   L 660.39 851.27   A 1.62 1.62 0.0 0 0 660.13 853.02   Q 660.81 854.49 662.07 855.73   Q 669.74 863.26 679.85 863.14   C 691.23 863.00 700.10 856.36 699.06 844.10   C 698.12 833.13 686.50 830.44 678.25 827.75   C 673.79 826.29 669.30 822.60 672.51 817.45   Q 673.68 815.56 676.12 814.82   C 682.37 812.91 687.40 815.41 690.58 820.91   A 0.83 0.82 -34.9 0 0 691.83 821.13"/>
<path stroke="#8a8984" vector-effect="non-scaling-stroke" d="   M 354.17 842.24   L 354.17 849.60   A 1.86 1.86 0.0 0 1 353.06 851.30   C 339.05 857.57 321.48 849.69 322.86 832.60   Q 323.79 821.13 333.63 816.71   Q 339.16 814.22 345.21 815.47   Q 350.71 816.61 355.66 821.05   A 0.23 0.23 0.0 0 0 355.99 821.03   L 362.18 814.05   A 0.23 0.23 0.0 0 0 362.16 813.73   C 350.09 802.94 333.35 802.05 321.37 813.13   C 309.96 823.69 310.01 843.85 320.89 854.45   C 331.25 864.53 347.19 865.36 359.89 858.45   C 362.43 857.06 363.98 856.58 363.93 853.51   Q 363.80 844.87 363.92 833.33   A 0.49 0.49 0.0 0 0 363.43 832.84   L 341.24 832.84   A 0.55 0.54 90.0 0 0 340.70 833.39   L 340.70 841.16   A 0.59 0.59 0.0 0 0 341.29 841.75   L 353.68 841.75   A 0.49 0.49 0.0 0 1 354.17 842.24"/>
<path stroke="#8a8984" vector-effect="non-scaling-stroke" d="   M 638.92 833.96   A 29.20 29.20 0.0 0 0 609.72 804.76   A 29.20 29.20 0.0 0 0 580.52 833.96   A 29.20 29.20 0.0 0 0 609.72 863.16   A 29.20 29.20 0.0 0 0 638.92 833.96"/>
<path stroke="#8a8984" vector-effect="non-scaling-stroke" d="   M 462.11 829.84   L 462.11 806.35   A 0.18 0.18 0.0 0 0 461.93 806.17   L 452.65 806.17   A 0.25 0.25 0.0 0 0 452.40 806.42   L 452.40 862.36   A 0.28 0.28 0.0 0 0 452.68 862.64   L 461.73 862.64   A 0.36 0.35 -90.0 0 0 462.08 862.28   Q 462.03 854.10 462.03 847.60   C 462.03 843.46 461.63 841.43 464.45 838.98   A 0.88 0.87 -40.3 0 1 465.70 839.08   L 485.03 862.31   A 1.07 1.03 69.6 0 0 485.84 862.70   L 497.28 862.70   A 0.42 0.42 0.0 0 0 497.61 862.01   L 474.46 834.18   A 1.54 1.54 0.0 0 1 474.49 832.17   L 496.94 806.86   A 0.41 0.40 -69.4 0 0 496.64 806.19   L 486.12 806.19   A 4.39 4.37 -69.2 0 0 482.84 807.67   L 462.92 830.14   A 0.46 0.46 0.0 0 1 462.11 829.84"/>
<path stroke="#8a8984" vector-effect="non-scaling-stroke" d="   M 529.33 829.83   L 529.26 806.43   A 0.18 0.18 0.0 0 0 529.08 806.25   L 519.84 806.28   A 0.25 0.25 0.0 0 0 519.59 806.53   L 519.74 862.26   A 0.28 0.28 0.0 0 0 520.02 862.54   L 529.04 862.52   A 0.36 0.35 89.8 0 0 529.39 862.16   Q 529.32 854.01 529.30 847.53   C 529.29 843.41 528.88 841.38 531.69 838.94   A 0.88 0.87 -40.4 0 1 532.93 839.03   L 552.26 862.12   A 1.07 1.03 69.5 0 0 553.06 862.51   L 564.46 862.48   A 0.42 0.42 0.0 0 0 564.79 861.79   L 541.65 834.13   A 1.54 1.53 45.8 0 1 541.67 832.12   L 563.97 806.84   A 0.40 0.40 0.0 0 0 563.67 806.17   L 553.19 806.20   A 4.38 4.36 -69.3 0 0 549.92 807.69   L 530.14 830.13   A 0.46 0.46 0.0 0 1 529.33 829.83"/>
<path stroke="#8a8984" vector-effect="non-scaling-stroke" d="   M 421.73 829.89   A 0.39 0.39 0.0 0 0 421.34 829.50   L 399.89 829.50   A 0.39 0.39 0.0 0 1 399.50 829.11   L 399.50 815.97   A 0.39 0.39 0.0 0 1 399.89 815.58   L 424.63 815.58   A 0.39 0.39 0.0 0 0 425.02 815.19   L 425.02 806.59   A 0.39 0.39 0.0 0 0 424.63 806.20   L 390.31 806.20   A 0.39 0.39 0.0 0 0 389.92 806.59   L 389.92 862.14   A 0.39 0.39 0.0 0 0 390.31 862.53   L 425.62 862.53   A 0.39 0.39 0.0 0 0 426.01 862.14   L 426.01 853.76   A 0.39 0.39 0.0 0 0 425.62 853.37   L 399.87 853.37   A 0.39 0.39 0.0 0 1 399.48 852.98   L 399.48 838.89   A 0.39 0.39 0.0 0 1 399.87 838.50   L 421.34 838.50   A 0.39 0.39 0.0 0 0 421.73 838.11   L 421.73 829.89"/>
<path stroke="#7b6645" vector-effect="non-scaling-stroke" d="   M 414.97 530.63   Q 400.65 522.97 396.11 520.40   C 368.60 504.84 344.83 477.84 341.84 445.06   Q 339.77 422.43 347.56 403.27   Q 356.69 380.84 374.87 364.87   Q 381.51 359.04 388.58 353.41   A 0.34 0.33 -65.5 0 0 388.36 352.81   Q 383.74 353.11 378.17 354.68   C 352.60 361.91 330.26 379.41 316.96 402.41   C 300.23 431.35 299.25 467.34 308.83 499.22   Q 315.47 521.32 330.56 541.99   Q 346.48 563.80 369.05 579.68"/>
<path stroke="#8a8984" vector-effect="non-scaling-stroke" d="   M 369.05 579.68   C 395.71 597.43 427.03 608.48 458.49 614.47   C 477.40 618.06 494.35 618.24 514.30 617.87   A 0.53 0.53 0.0 0 0 514.81 617.23   C 512.47 606.26 520.73 595.17 528.75 588.46   Q 537.98 580.73 548.57 577.05   C 560.24 573.00 575.44 573.53 585.82 580.63   Q 594.38 586.49 593.87 596.72   A 0.47 0.47 0.0 0 0 594.50 597.18   Q 604.10 593.72 613.51 588.47   Q 640.03 573.69 661.68 551.66   A 0.63 0.63 0.0 0 0 661.52 550.66   Q 644.12 541.69 642.19 521.99   Q 640.17 501.51 650.49 483.73   Q 659.44 468.31 673.41 454.66   C 679.85 448.36 687.65 442.26 697.03 441.40   Q 709.36 440.25 716.86 449.55   A 0.23 0.23 0.0 0 0 717.26 449.45   Q 721.99 422.82 721.03 395.79   A 0.50 0.49 81.7 0 0 720.41 395.32   Q 711.19 397.77 703.26 394.73   C 689.68 389.52 677.17 376.88 671.48 363.52   C 666.22 351.17 666.91 331.47 678.12 322.03   Q 686.87 314.66 699.57 315.44   A 0.45 0.44 -11.1 0 0 700.00 314.81   Q 689.23 292.35 673.63 272.05   A 0.48 0.47 40.3 0 0 672.84 272.11   C 666.64 283.78 653.64 289.03 640.94 287.86   C 623.48 286.26 605.56 276.00 593.93 262.85   Q 581.87 249.21 582.60 231.59   C 582.97 222.75 585.90 215.61 592.52 210.10   A 0.68 0.68 0.0 0 0 592.38 208.96   L 560.90 193.88   A 0.66 0.65 -80.9 0 0 559.97 194.56   C 561.09 202.84 557.28 210.00 552.19 216.19   Q 542.95 227.43 529.94 239.21   Q 516.60 251.29 510.86 268.11   C 508.40 275.33 506.18 285.22 501.45 292.28   A 0.29 0.28 24.8 0 0 501.61 292.71   C 519.90 298.11 534.91 314.76 526.62 334.93   C 524.42 340.29 520.34 344.27 516.45 348.20   C 510.85 353.86 504.78 362.04 511.66 368.67   C 514.09 371.01 517.35 371.62 520.76 371.64   C 536.02 371.70 546.89 362.29 556.57 351.79   Q 561.77 346.15 564.76 345.29   Q 570.91 343.51 575.70 347.32   Q 582.45 352.69 586.77 361.01   C 592.50 372.03 595.98 383.35 596.12 395.84   Q 596.38 419.41 584.73 439.99   C 579.18 449.80 570.77 456.48 558.99 450.11   C 555.50 448.23 550.66 443.93 546.55 442.12   Q 533.86 436.56 521.15 438.56   Q 507.87 440.65 502.13 453.51   C 497.14 464.69 493.68 479.79 495.58 492.39   A 0.90 0.89 -6.9 0 0 496.54 493.14   Q 498.14 493.01 499.51 492.30   Q 508.59 487.57 511.13 486.41   C 518.88 482.85 527.67 485.13 528.00 495.02   C 528.24 502.08 520.39 510.05 515.21 513.98   C 494.49 529.73 469.87 536.76 443.93 535.97   C 432.96 535.64 424.18 533.92 414.97 530.63"/>
<path stroke="#eacfab" vector-effect="non-scaling-stroke" d="   M 369.05 579.68   Q 370.55 579.24 372.15 579.08   Q 374.10 578.89 375.24 578.47   Q 389.71 573.22 398.52 561.26   Q 408.38 547.88 414.97 530.63"/>
<path stroke="#8a8984" vector-effect="non-scaling-stroke" d="   M 431.8243 226.5722   A 13.69 13.00 -60.1 0 0 413.7303 231.9597   A 13.69 13.00 -60.1 0 0 418.1757 250.3078   A 13.69 13.00 -60.1 0 0 436.2697 244.9203   A 13.69 13.00 -60.1 0 0 431.8243 226.5722"/>
<path stroke="#8a8984" vector-effect="non-scaling-stroke" d="   M 557.3281 277.6377   A 20.48 15.89 -125.6 0 0 556.3298 303.5399   A 20.48 15.89 -125.6 0 0 581.1719 310.9423   A 20.48 15.89 -125.6 0 0 582.1702 285.0401   A 20.48 15.89 -125.6 0 0 557.3281 277.6377"/>
<path stroke="#8a8984" vector-effect="non-scaling-stroke" d="   M 655.11 363.59   C 652.76 355.52 646.39 346.06 638.33 343.62   C 629.85 341.04 622.52 345.31 617.92 352.64   C 611.60 362.73 611.25 376.08 613.65 387.58   C 615.11 394.53 618.90 402.38 625.13 406.06   C 632.59 410.47 641.98 408.13 648.08 402.01   C 657.97 392.08 659.01 376.95 655.11 363.59"/>
<path stroke="#8a8984" vector-effect="non-scaling-stroke" d="   M 616.30 443.52   C 612.95 448.77 612.01 455.64 614.12 461.63   C 617.35 470.77 627.98 468.88 634.37 465.03   Q 638.11 462.77 640.53 458.99   Q 642.94 455.20 643.41 450.86   C 644.22 443.44 641.46 433.00 631.80 433.93   C 625.49 434.52 619.65 438.27 616.30 443.52"/>
<path stroke="#8a8984" vector-effect="non-scaling-stroke" d="   M 602.7807 496.8745   A 35.36 26.55 -43.0 0 0 558.8129 501.5726   A 35.36 26.55 -43.0 0 0 551.0593 545.1055   A 35.36 26.55 -43.0 0 0 595.0271 540.4074   A 35.36 26.55 -43.0 0 0 602.7807 496.8745"/>
<path stroke="#8a8984" vector-effect="non-scaling-stroke" d="   M 509.8706 564.3341   A 15.50 12.86 -16.9 0 0 491.3016 556.5354   A 15.50 12.86 -16.9 0 0 480.2094 573.3459   A 15.50 12.86 -16.9 0 0 498.7784 581.1446   A 15.50 12.86 -16.9 0 0 509.8706 564.3341"/>
<path stroke="#8a8984" vector-effect="non-scaling-stroke" d="   M 418.1621 569.4596   A 15.59 12.71 -170.1 0 0 431.3348 584.6607   A 15.59 12.71 -170.1 0 0 448.8779 574.8204   A 15.59 12.71 -170.1 0 0 435.7052 559.6193   A 15.59 12.71 -170.1 0 0 418.1621 569.4596"/>
<path stroke="#8a8984" vector-effect="non-scaling-stroke" d="   M 611.1242 814.2680   A 19.70 19.35 -86.0 0 0 590.4471 832.5702   A 19.70 19.35 -86.0 0 0 608.3758 853.5720   A 19.70 19.35 -86.0 0 0 629.0529 835.2698   A 19.70 19.35 -86.0 0 0 611.1242 814.2680"/>
</g>
<path xmlns="http://www.w3.org/2000/svg" fill="#f9f2e9" d="   M 1024.00 0.00   L 1024.00 1024.00   L 0.00 1024.00   L 0.00 0.00   L 1024.00 0.00   Z   M 504.06 507.35   Q 501.54 509.76 497.71 512.21   Q 480.27 523.36 460.99 524.60   Q 446.76 525.52 439.29 524.64   C 409.66 521.12 381.66 504.92 365.08 479.94   Q 349.62 456.63 352.32 428.49   C 354.51 405.70 366.94 383.88 384.44 369.20   Q 386.13 367.79 396.75 359.50   C 399.72 357.18 401.93 352.40 399.49 348.80   C 396.91 344.99 391.78 343.61 387.50 343.95   C 357.45 346.37 329.69 364.47 313.05 389.12   C 277.42 441.89 289.92 512.97 331.02 559.23   C 351.64 582.44 376.50 598.83 405.01 610.24   C 517.58 655.31 651.21 616.20 707.98 504.99   C 737.55 447.04 739.06 377.41 712.87 318.17   Q 697.60 283.61 672.25 254.93   Q 655.70 236.19 632.88 220.81   Q 601.54 199.68 565.32 188.18   Q 548.79 182.93 531.97 178.80   C 507.32 172.74 482.32 172.84 455.72 173.01   C 432.98 173.16 412.56 177.43 394.10 189.14   Q 387.98 193.03 375.45 204.52   Q 365.30 213.83 346.45 229.20   Q 338.33 235.82 329.51 245.00   C 323.46 251.31 317.50 259.32 317.54 268.33   C 317.60 281.90 328.44 288.16 340.06 292.20   Q 387.66 308.71 437.71 309.08   C 454.85 309.21 472.96 305.63 489.24 306.20   Q 498.22 306.52 504.49 310.51   C 509.72 313.84 514.92 320.72 514.44 327.26   C 514.09 331.91 511.34 336.98 507.58 339.81   C 502.48 343.64 492.77 342.50 487.09 340.67   Q 484.22 339.74 480.10 336.93   C 474.74 333.28 469.35 329.58 462.69 329.90   C 452.73 330.37 453.23 341.63 459.09 346.43   Q 463.06 349.67 466.47 351.05   Q 473.90 354.04 479.51 357.65   A 0.84 0.84 0.0 0 1 479.45 359.10   Q 477.01 360.41 474.47 360.99   Q 465.89 362.96 461.50 363.78   C 456.91 364.62 450.88 366.75 448.47 370.63   Q 445.48 375.45 449.00 379.91   C 454.30 386.62 466.12 381.49 473.11 379.11   Q 480.17 376.70 487.55 376.75   A 0.42 0.42 0.0 0 1 487.93 377.34   C 485.35 382.84 480.25 387.84 476.52 392.51   C 466.85 404.59 479.10 414.98 490.15 405.37   C 494.95 401.19 497.47 395.78 499.98 390.00   C 502.45 384.34 505.16 381.61 511.51 382.05   Q 515.94 382.36 518.87 382.65   C 533.91 384.11 548.17 375.77 558.18 365.32   A 0.45 0.45 0.0 0 1 558.95 365.55   C 563.03 387.88 563.51 410.76 558.77 433.00   A 0.44 0.43 20.1 0 1 558.14 433.29   Q 542.72 425.20 525.09 426.09   Q 515.65 426.57 508.91 429.90   C 495.25 436.64 489.22 452.55 485.28 466.39   A 0.50 0.50 0.0 0 1 484.44 466.60   Q 477.46 459.52 471.94 451.21   C 468.57 446.15 463.49 441.07 457.41 440.86   C 453.39 440.72 449.30 443.29 448.88 447.39   C 447.53 460.34 462.27 465.86 469.44 475.71   A 0.64 0.64 0.0 0 1 469.17 476.68   Q 468.88 476.81 467.88 476.87   C 462.88 477.21 457.04 476.77 450.51 475.75   C 444.05 474.74 433.08 473.43 430.56 481.83   C 427.21 493.03 440.84 495.51 448.26 494.88   Q 459.90 493.90 471.04 496.11   A 0.38 0.38 0.0 0 1 471.28 496.70   Q 470.84 497.33 470.10 497.83   C 463.23 502.49 458.22 504.71 455.71 509.18   C 453.82 512.52 454.42 516.99 457.79 519.16   C 464.87 523.73 474.74 516.52 480.05 513.29   Q 487.03 509.05 495.34 508.55   C 497.98 508.40 501.37 507.68 503.87 507.02   A 0.20 0.20 0.0 0 1 504.06 507.35   Z   M 756.39 746.24   C 750.27 752.57 743.88 756.62 734.66 757.09   C 717.20 757.98 704.63 744.83 704.39 727.74   Q 704.18 712.79 714.53 703.94   C 722.47 697.15 732.17 695.26 742.07 698.28   C 746.18 699.54 750.78 702.78 754.20 705.62   A 0.68 0.68 0.0 0 0 755.15 705.55   L 762.99 696.71   A 0.82 0.81 47.4 0 0 763.03 695.67   Q 761.91 694.18 759.53 692.43   C 728.91 669.94 687.98 691.77 690.36 729.67   C 691.61 749.55 705.03 766.66 725.05 769.89   Q 748.67 773.70 764.75 756.75   A 1.03 1.02 -43.0 0 0 764.80 755.39   L 757.21 746.27   A 0.55 0.55 0.0 0 0 756.39 746.24   Z   M 292.75 698.46   Q 292.59 698.84 292.29 699.29   Q 288.26 705.40 253.35 756.86   C 250.83 760.57 251.50 764.56 251.50 768.71   A 0.43 0.42 0.0 0 0 251.93 769.13   L 312.30 769.13   A 0.65 0.65 0.0 0 0 312.95 768.48   L 312.95 756.79   A 0.60 0.59 -90.0 0 0 312.36 756.19   L 270.41 756.19   A 0.24 0.23 -72.7 0 1 270.22 755.82   Q 289.91 726.95 309.86 697.86   C 311.68 695.20 311.17 688.80 310.88 685.75   A 0.76 0.76 0.0 0 0 310.12 685.06   L 252.76 685.06   A 0.81 0.81 0.0 0 0 251.95 685.87   L 251.95 697.17   A 0.72 0.72 0.0 0 0 252.67 697.89   L 292.38 697.89   A 0.41 0.40 -78.4 0 1 292.75 698.46   Z   M 334.61 685.08   A 0.59 0.59 0.0 0 0 334.02 685.67   L 334.02 768.57   A 0.59 0.59 0.0 0 0 334.61 769.16   L 385.54 769.16   A 0.59 0.59 0.0 0 0 386.13 768.57   L 386.13 756.79   A 0.59 0.59 0.0 0 0 385.54 756.20   L 348.54 756.20   A 0.59 0.59 0.0 0 1 347.95 755.61   L 347.95 733.70   A 0.59 0.59 0.0 0 1 348.54 733.11   L 379.50 733.11   A 0.59 0.59 0.0 0 0 380.09 732.52   L 380.09 721.20   A 0.59 0.59 0.0 0 0 379.50 720.61   L 348.58 720.61   A 0.59 0.59 0.0 0 1 347.99 720.02   L 347.99 698.48   A 0.59 0.59 0.0 0 1 348.58 697.89   L 384.41 697.89   A 0.59 0.59 0.0 0 0 385.00 697.30   L 385.00 685.67   A 0.59 0.59 0.0 0 0 384.41 685.08   L 334.61 685.08   Z   M 436.92 731.06   C 446.92 744.84 455.84 757.50 463.52 768.10   A 1.81 1.59 84.5 0 0 463.99 768.54   Q 465.00 769.18 467.01 769.18   Q 474.26 769.17 476.68 769.15   A 0.58 0.57 89.5 0 0 477.24 768.57   L 477.24 685.55   A 0.61 0.61 0.0 0 0 476.63 684.94   L 464.08 684.94   A 0.59 0.59 0.0 0 0 463.49 685.53   L 463.49 743.72   A 0.32 0.32 0.0 0 1 462.91 743.90   Q 449.44 725.31 447.75 722.99   C 437.74 709.21 428.82 696.55 421.14 685.95   A 1.81 1.59 84.5 0 0 420.67 685.51   Q 419.66 684.87 417.65 684.87   Q 410.40 684.88 407.98 684.90   A 0.58 0.57 89.5 0 0 407.42 685.48   L 407.42 768.50   A 0.61 0.61 0.0 0 0 408.03 769.11   L 420.58 769.11   A 0.59 0.59 0.0 0 0 421.17 768.52   L 421.17 710.33   A 0.32 0.32 0.0 0 1 421.76 710.14   Q 435.23 728.73 436.92 731.06   Z   M 552.88 769.16   A 0.32 0.32 0.0 0 0 553.20 768.84   L 553.20 756.52   A 0.32 0.32 0.0 0 0 552.88 756.20   L 516.41 756.20   A 0.32 0.32 0.0 0 1 516.09 755.88   L 516.09 733.43   A 0.32 0.32 0.0 0 1 516.41 733.11   L 547.27 733.11   A 0.32 0.32 0.0 0 0 547.59 732.79   L 547.59 720.95   A 0.32 0.32 0.0 0 0 547.27 720.63   L 516.43 720.63   A 0.32 0.32 0.0 0 1 516.11 720.31   L 516.11 698.23   A 0.32 0.32 0.0 0 1 516.43 697.91   L 552.00 697.91   A 0.32 0.32 0.0 0 0 552.32 697.59   L 552.32 685.36   A 0.32 0.32 0.0 0 0 552.00 685.04   L 502.60 685.04   A 0.32 0.32 0.0 0 0 502.28 685.36   L 502.28 768.84   A 0.32 0.32 0.0 0 0 502.60 769.16   L 552.88 769.16   Z   M 604.08 769.17   Q 607.44 769.16 610.69 769.12   A 0.25 0.25 0.0 0 0 610.94 768.87   L 610.94 698.66   A 0.81 0.80 -0.0 0 1 611.75 697.86   L 636.98 697.86   A 0.59 0.59 0.0 0 0 637.57 697.27   L 637.57 685.30   A 0.36 0.35 0.2 0 0 637.22 684.95   Q 606.43 685.07 603.94 685.07   Q 601.44 685.08 570.66 685.06   A 0.36 0.35 -0.4 0 0 570.31 685.41   L 570.35 697.38   A 0.59 0.59 0.0 0 0 570.94 697.97   L 596.17 697.89   A 0.81 0.80 -0.2 0 1 596.98 698.68   L 597.22 768.89   A 0.25 0.25 0.0 0 0 597.47 769.15   Q 600.72 769.18 604.08 769.17   Z   M 669.91 685.84   A 0.77 0.77 0.0 0 0 669.14 685.07   L 656.68 685.07   A 0.77 0.77 0.0 0 0 655.91 685.84   L 655.91 768.44   A 0.77 0.77 0.0 0 0 656.68 769.21   L 669.14 769.21   A 0.77 0.77 0.0 0 0 669.91 768.44   L 669.91 685.84   Z   M 691.83 821.13   L 697.72 816.23   A 1.14 1.14 0.0 0 0 697.92 814.68   Q 690.22 804.12 677.70 805.10   C 667.33 805.91 660.16 813.05 661.79 823.88   C 663.36 834.22 674.92 836.42 682.86 839.45   Q 687.01 841.04 688.21 843.10   C 690.39 846.83 688.42 852.27 683.97 853.40   C 675.90 855.45 670.69 852.17 666.65 845.70   A 0.77 0.77 0.0 0 0 665.42 845.60   L 660.39 851.27   A 1.62 1.62 0.0 0 0 660.13 853.02   Q 660.81 854.49 662.07 855.73   Q 669.74 863.26 679.85 863.14   C 691.23 863.00 700.10 856.36 699.06 844.10   C 698.12 833.13 686.50 830.44 678.25 827.75   C 673.79 826.29 669.30 822.60 672.51 817.45   Q 673.68 815.56 676.12 814.82   C 682.37 812.91 687.40 815.41 690.58 820.91   A 0.83 0.82 -34.9 0 0 691.83 821.13   Z   M 354.17 842.24   L 354.17 849.60   A 1.86 1.86 0.0 0 1 353.06 851.30   C 339.05 857.57 321.48 849.69 322.86 832.60   Q 323.79 821.13 333.63 816.71   Q 339.16 814.22 345.21 815.47   Q 350.71 816.61 355.66 821.05   A 0.23 0.23 0.0 0 0 355.99 821.03   L 362.18 814.05   A 0.23 0.23 0.0 0 0 362.16 813.73   C 350.09 802.94 333.35 802.05 321.37 813.13   C 309.96 823.69 310.01 843.85 320.89 854.45   C 331.25 864.53 347.19 865.36 359.89 858.45   C 362.43 857.06 363.98 856.58 363.93 853.51   Q 363.80 844.87 363.92 833.33   A 0.49 0.49 0.0 0 0 363.43 832.84   L 341.24 832.84   A 0.55 0.54 90.0 0 0 340.70 833.39   L 340.70 841.16   A 0.59 0.59 0.0 0 0 341.29 841.75   L 353.68 841.75   A 0.49 0.49 0.0 0 1 354.17 842.24   Z   M 638.92 833.96   A 29.20 29.20 0.0 0 0 609.72 804.76   A 29.20 29.20 0.0 0 0 580.52 833.96   A 29.20 29.20 0.0 0 0 609.72 863.16   A 29.20 29.20 0.0 0 0 638.92 833.96   Z   M 462.11 829.84   L 462.11 806.35   A 0.18 0.18 0.0 0 0 461.93 806.17   L 452.65 806.17   A 0.25 0.25 0.0 0 0 452.40 806.42   L 452.40 862.36   A 0.28 0.28 0.0 0 0 452.68 862.64   L 461.73 862.64   A 0.36 0.35 -90.0 0 0 462.08 862.28   Q 462.03 854.10 462.03 847.60   C 462.03 843.46 461.63 841.43 464.45 838.98   A 0.88 0.87 -40.3 0 1 465.70 839.08   L 485.03 862.31   A 1.07 1.03 69.6 0 0 485.84 862.70   L 497.28 862.70   A 0.42 0.42 0.0 0 0 497.61 862.01   L 474.46 834.18   A 1.54 1.54 0.0 0 1 474.49 832.17   L 496.94 806.86   A 0.41 0.40 -69.4 0 0 496.64 806.19   L 486.12 806.19   A 4.39 4.37 -69.2 0 0 482.84 807.67   L 462.92 830.14   A 0.46 0.46 0.0 0 1 462.11 829.84   Z   M 529.33 829.83   L 529.26 806.43   A 0.18 0.18 0.0 0 0 529.08 806.25   L 519.84 806.28   A 0.25 0.25 0.0 0 0 519.59 806.53   L 519.74 862.26   A 0.28 0.28 0.0 0 0 520.02 862.54   L 529.04 862.52   A 0.36 0.35 89.8 0 0 529.39 862.16   Q 529.32 854.01 529.30 847.53   C 529.29 843.41 528.88 841.38 531.69 838.94   A 0.88 0.87 -40.4 0 1 532.93 839.03   L 552.26 862.12   A 1.07 1.03 69.5 0 0 553.06 862.51   L 564.46 862.48   A 0.42 0.42 0.0 0 0 564.79 861.79   L 541.65 834.13   A 1.54 1.53 45.8 0 1 541.67 832.12   L 563.97 806.84   A 0.40 0.40 0.0 0 0 563.67 806.17   L 553.19 806.20   A 4.38 4.36 -69.3 0 0 549.92 807.69   L 530.14 830.13   A 0.46 0.46 0.0 0 1 529.33 829.83   Z   M 421.73 829.89   A 0.39 0.39 0.0 0 0 421.34 829.50   L 399.89 829.50   A 0.39 0.39 0.0 0 1 399.50 829.11   L 399.50 815.97   A 0.39 0.39 0.0 0 1 399.89 815.58   L 424.63 815.58   A 0.39 0.39 0.0 0 0 425.02 815.19   L 425.02 806.59   A 0.39 0.39 0.0 0 0 424.63 806.20   L 390.31 806.20   A 0.39 0.39 0.0 0 0 389.92 806.59   L 389.92 862.14   A 0.39 0.39 0.0 0 0 390.31 862.53   L 425.62 862.53   A 0.39 0.39 0.0 0 0 426.01 862.14   L 426.01 853.76   A 0.39 0.39 0.0 0 0 425.62 853.37   L 399.87 853.37   A 0.39 0.39 0.0 0 1 399.48 852.98   L 399.48 838.89   A 0.39 0.39 0.0 0 1 399.87 838.50   L 421.34 838.50   A 0.39 0.39 0.0 0 0 421.73 838.11   L 421.73 829.89   Z"/>
<path xmlns="http://www.w3.org/2000/svg" fill="#1b201e" d="   M 504.06 507.35   A 0.20 0.20 0.0 0 0 503.87 507.02   C 501.37 507.68 497.98 508.40 495.34 508.55   Q 487.03 509.05 480.05 513.29   C 474.74 516.52 464.87 523.73 457.79 519.16   C 454.42 516.99 453.82 512.52 455.71 509.18   C 458.22 504.71 463.23 502.49 470.10 497.83   Q 470.84 497.33 471.28 496.70   A 0.38 0.38 0.0 0 0 471.04 496.11   Q 459.90 493.90 448.26 494.88   C 440.84 495.51 427.21 493.03 430.56 481.83   C 433.08 473.43 444.05 474.74 450.51 475.75   C 457.04 476.77 462.88 477.21 467.88 476.87   Q 468.88 476.81 469.17 476.68   A 0.64 0.64 0.0 0 0 469.44 475.71   C 462.27 465.86 447.53 460.34 448.88 447.39   C 449.30 443.29 453.39 440.72 457.41 440.86   C 463.49 441.07 468.57 446.15 471.94 451.21   Q 477.46 459.52 484.44 466.60   A 0.50 0.50 0.0 0 0 485.28 466.39   C 489.22 452.55 495.25 436.64 508.91 429.90   Q 515.65 426.57 525.09 426.09   Q 542.72 425.20 558.14 433.29   A 0.44 0.43 20.1 0 0 558.77 433.00   C 563.51 410.76 563.03 387.88 558.95 365.55   A 0.45 0.45 0.0 0 0 558.18 365.32   C 548.17 375.77 533.91 384.11 518.87 382.65   Q 515.94 382.36 511.51 382.05   C 505.16 381.61 502.45 384.34 499.98 390.00   C 497.47 395.78 494.95 401.19 490.15 405.37   C 479.10 414.98 466.85 404.59 476.52 392.51   C 480.25 387.84 485.35 382.84 487.93 377.34   A 0.42 0.42 0.0 0 0 487.55 376.75   Q 480.17 376.70 473.11 379.11   C 466.12 381.49 454.30 386.62 449.00 379.91   Q 445.48 375.45 448.47 370.63   C 450.88 366.75 456.91 364.62 461.50 363.78   Q 465.89 362.96 474.47 360.99   Q 477.01 360.41 479.45 359.10   A 0.84 0.84 0.0 0 0 479.51 357.65   Q 473.90 354.04 466.47 351.05   Q 463.06 349.67 459.09 346.43   C 453.23 341.63 452.73 330.37 462.69 329.90   C 469.35 329.58 474.74 333.28 480.10 336.93   Q 484.22 339.74 487.09 340.67   C 492.77 342.50 502.48 343.64 507.58 339.81   C 511.34 336.98 514.09 331.91 514.44 327.26   C 514.92 320.72 509.72 313.84 504.49 310.51   Q 498.22 306.52 489.24 306.20   C 472.96 305.63 454.85 309.21 437.71 309.08   Q 387.66 308.71 340.06 292.20   C 328.44 288.16 317.60 281.90 317.54 268.33   C 317.50 259.32 323.46 251.31 329.51 245.00   Q 338.33 235.82 346.45 229.20   Q 365.30 213.83 375.45 204.52   Q 387.98 193.03 394.10 189.14   C 412.56 177.43 432.98 173.16 455.72 173.01   C 482.32 172.84 507.32 172.74 531.97 178.80   Q 548.79 182.93 565.32 188.18   Q 601.54 199.68 632.88 220.81   Q 655.70 236.19 672.25 254.93   Q 697.60 283.61 712.87 318.17   C 739.06 377.41 737.55 447.04 707.98 504.99   C 651.21 616.20 517.58 655.31 405.01 610.24   C 376.50 598.83 351.64 582.44 331.02 559.23   C 289.92 512.97 277.42 441.89 313.05 389.12   C 329.69 364.47 357.45 346.37 387.50 343.95   C 391.78 343.61 396.91 344.99 399.49 348.80   C 401.93 352.40 399.72 357.18 396.75 359.50   Q 386.13 367.79 384.44 369.20   C 366.94 383.88 354.51 405.70 352.32 428.49   Q 349.62 456.63 365.08 479.94   C 381.66 504.92 409.66 521.12 439.29 524.64   Q 446.76 525.52 460.99 524.60   Q 480.27 523.36 497.71 512.21   Q 501.54 509.76 504.06 507.35   Z   M 414.97 530.63   Q 400.65 522.97 396.11 520.40   C 368.60 504.84 344.83 477.84 341.84 445.06   Q 339.77 422.43 347.56 403.27   Q 356.69 380.84 374.87 364.87   Q 381.51 359.04 388.58 353.41   A 0.34 0.33 -65.5 0 0 388.36 352.81   Q 383.74 353.11 378.17 354.68   C 352.60 361.91 330.26 379.41 316.96 402.41   C 300.23 431.35 299.25 467.34 308.83 499.22   Q 315.47 521.32 330.56 541.99   Q 346.48 563.80 369.05 579.68   C 395.71 597.43 427.03 608.48 458.49 614.47   C 477.40 618.06 494.35 618.24 514.30 617.87   A 0.53 0.53 0.0 0 0 514.81 617.23   C 512.47 606.26 520.73 595.17 528.75 588.46   Q 537.98 580.73 548.57 577.05   C 560.24 573.00 575.44 573.53 585.82 580.63   Q 594.38 586.49 593.87 596.72   A 0.47 0.47 0.0 0 0 594.50 597.18   Q 604.10 593.72 613.51 588.47   Q 640.03 573.69 661.68 551.66   A 0.63 0.63 0.0 0 0 661.52 550.66   Q 644.12 541.69 642.19 521.99   Q 640.17 501.51 650.49 483.73   Q 659.44 468.31 673.41 454.66   C 679.85 448.36 687.65 442.26 697.03 441.40   Q 709.36 440.25 716.86 449.55   A 0.23 0.23 0.0 0 0 717.26 449.45   Q 721.99 422.82 721.03 395.79   A 0.50 0.49 81.7 0 0 720.41 395.32   Q 711.19 397.77 703.26 394.73   C 689.68 389.52 677.17 376.88 671.48 363.52   C 666.22 351.17 666.91 331.47 678.12 322.03   Q 686.87 314.66 699.57 315.44   A 0.45 0.44 -11.1 0 0 700.00 314.81   Q 689.23 292.35 673.63 272.05   A 0.48 0.47 40.3 0 0 672.84 272.11   C 666.64 283.78 653.64 289.03 640.94 287.86   C 623.48 286.26 605.56 276.00 593.93 262.85   Q 581.87 249.21 582.60 231.59   C 582.97 222.75 585.90 215.61 592.52 210.10   A 0.68 0.68 0.0 0 0 592.38 208.96   L 560.90 193.88   A 0.66 0.65 -80.9 0 0 559.97 194.56   C 561.09 202.84 557.28 210.00 552.19 216.19   Q 542.95 227.43 529.94 239.21   Q 516.60 251.29 510.86 268.11   C 508.40 275.33 506.18 285.22 501.45 292.28   A 0.29 0.28 24.8 0 0 501.61 292.71   C 519.90 298.11 534.91 314.76 526.62 334.93   C 524.42 340.29 520.34 344.27 516.45 348.20   C 510.85 353.86 504.78 362.04 511.66 368.67   C 514.09 371.01 517.35 371.62 520.76 371.64   C 536.02 371.70 546.89 362.29 556.57 351.79   Q 561.77 346.15 564.76 345.29   Q 570.91 343.51 575.70 347.32   Q 582.45 352.69 586.77 361.01   C 592.50 372.03 595.98 383.35 596.12 395.84   Q 596.38 419.41 584.73 439.99   C 579.18 449.80 570.77 456.48 558.99 450.11   C 555.50 448.23 550.66 443.93 546.55 442.12   Q 533.86 436.56 521.15 438.56   Q 507.87 440.65 502.13 453.51   C 497.14 464.69 493.68 479.79 495.58 492.39   A 0.90 0.89 -6.9 0 0 496.54 493.14   Q 498.14 493.01 499.51 492.30   Q 508.59 487.57 511.13 486.41   C 518.88 482.85 527.67 485.13 528.00 495.02   C 528.24 502.08 520.39 510.05 515.21 513.98   C 494.49 529.73 469.87 536.76 443.93 535.97   C 432.96 535.64 424.18 533.92 414.97 530.63   Z   M 431.8243 226.5722   A 13.69 13.00 -60.1 0 0 413.7303 231.9597   A 13.69 13.00 -60.1 0 0 418.1757 250.3078   A 13.69 13.00 -60.1 0 0 436.2697 244.9203   A 13.69 13.00 -60.1 0 0 431.8243 226.5722   Z"/>
<path xmlns="http://www.w3.org/2000/svg" fill="#f9f2e9" d="   M 369.05 579.68   Q 370.55 579.24 372.15 579.08   Q 374.10 578.89 375.24 578.47   Q 389.71 573.22 398.52 561.26   Q 408.38 547.88 414.97 530.63   C 424.18 533.92 432.96 535.64 443.93 535.97   C 469.87 536.76 494.49 529.73 515.21 513.98   C 520.39 510.05 528.24 502.08 528.00 495.02   C 527.67 485.13 518.88 482.85 511.13 486.41   Q 508.59 487.57 499.51 492.30   Q 498.14 493.01 496.54 493.14   A 0.90 0.89 -6.9 0 1 495.58 492.39   C 493.68 479.79 497.14 464.69 502.13 453.51   Q 507.87 440.65 521.15 438.56   Q 533.86 436.56 546.55 442.12   C 550.66 443.93 555.50 448.23 558.99 450.11   C 570.77 456.48 579.18 449.80 584.73 439.99   Q 596.38 419.41 596.12 395.84   C 595.98 383.35 592.50 372.03 586.77 361.01   Q 582.45 352.69 575.70 347.32   Q 570.91 343.51 564.76 345.29   Q 561.77 346.15 556.57 351.79   C 546.89 362.29 536.02 371.70 520.76 371.64   C 517.35 371.62 514.09 371.01 511.66 368.67   C 504.78 362.04 510.85 353.86 516.45 348.20   C 520.34 344.27 524.42 340.29 526.62 334.93   C 534.91 314.76 519.90 298.11 501.61 292.71   A 0.29 0.28 24.8 0 1 501.45 292.28   C 506.18 285.22 508.40 275.33 510.86 268.11   Q 516.60 251.29 529.94 239.21   Q 542.95 227.43 552.19 216.19   C 557.28 210.00 561.09 202.84 559.97 194.56   A 0.66 0.65 -80.9 0 1 560.90 193.88   L 592.38 208.96   A 0.68 0.68 0.0 0 1 592.52 210.10   C 585.90 215.61 582.97 222.75 582.60 231.59   Q 581.87 249.21 593.93 262.85   C 605.56 276.00 623.48 286.26 640.94 287.86   C 653.64 289.03 666.64 283.78 672.84 272.11   A 0.48 0.47 40.3 0 1 673.63 272.05   Q 689.23 292.35 700.00 314.81   A 0.45 0.44 -11.1 0 1 699.57 315.44   Q 686.87 314.66 678.12 322.03   C 666.91 331.47 666.22 351.17 671.48 363.52   C 677.17 376.88 689.68 389.52 703.26 394.73   Q 711.19 397.77 720.41 395.32   A 0.50 0.49 81.7 0 1 721.03 395.79   Q 721.99 422.82 717.26 449.45   A 0.23 0.23 0.0 0 1 716.86 449.55   Q 709.36 440.25 697.03 441.40   C 687.65 442.26 679.85 448.36 673.41 454.66   Q 659.44 468.31 650.49 483.73   Q 640.17 501.51 642.19 521.99   Q 644.12 541.69 661.52 550.66   A 0.63 0.63 0.0 0 1 661.68 551.66   Q 640.03 573.69 613.51 588.47   Q 604.10 593.72 594.50 597.18   A 0.47 0.47 0.0 0 1 593.87 596.72   Q 594.38 586.49 585.82 580.63   C 575.44 573.53 560.24 573.00 548.57 577.05   Q 537.98 580.73 528.75 588.46   C 520.73 595.17 512.47 606.26 514.81 617.23   A 0.53 0.53 0.0 0 1 514.30 617.87   C 494.35 618.24 477.40 618.06 458.49 614.47   C 427.03 608.48 395.71 597.43 369.05 579.68   Z   M 557.3281 277.6377   A 20.48 15.89 -125.6 0 0 556.3298 303.5399   A 20.48 15.89 -125.6 0 0 581.1719 310.9423   A 20.48 15.89 -125.6 0 0 582.1702 285.0401   A 20.48 15.89 -125.6 0 0 557.3281 277.6377   Z   M 655.11 363.59   C 652.76 355.52 646.39 346.06 638.33 343.62   C 629.85 341.04 622.52 345.31 617.92 352.64   C 611.60 362.73 611.25 376.08 613.65 387.58   C 615.11 394.53 618.90 402.38 625.13 406.06   C 632.59 410.47 641.98 408.13 648.08 402.01   C 657.97 392.08 659.01 376.95 655.11 363.59   Z   M 616.30 443.52   C 612.95 448.77 612.01 455.64 614.12 461.63   C 617.35 470.77 627.98 468.88 634.37 465.03   Q 638.11 462.77 640.53 458.99   Q 642.94 455.20 643.41 450.86   C 644.22 443.44 641.46 433.00 631.80 433.93   C 625.49 434.52 619.65 438.27 616.30 443.52   Z   M 602.7807 496.8745   A 35.36 26.55 -43.0 0 0 558.8129 501.5726   A 35.36 26.55 -43.0 0 0 551.0593 545.1055   A 35.36 26.55 -43.0 0 0 595.0271 540.4074   A 35.36 26.55 -43.0 0 0 602.7807 496.8745   Z   M 509.8706 564.3341   A 15.50 12.86 -16.9 0 0 491.3016 556.5354   A 15.50 12.86 -16.9 0 0 480.2094 573.3459   A 15.50 12.86 -16.9 0 0 498.7784 581.1446   A 15.50 12.86 -16.9 0 0 509.8706 564.3341   Z   M 418.1621 569.4596   A 15.59 12.71 -170.1 0 0 431.3348 584.6607   A 15.59 12.71 -170.1 0 0 448.8779 574.8204   A 15.59 12.71 -170.1 0 0 435.7052 559.6193   A 15.59 12.71 -170.1 0 0 418.1621 569.4596   Z"/>
<ellipse xmlns="http://www.w3.org/2000/svg" fill="#f9f2e9" cx="0.00" cy="0.00" transform="translate(425.00,238.44) rotate(-60.1)" rx="13.69" ry="13.00"/>
<ellipse xmlns="http://www.w3.org/2000/svg" fill="#1b201e" cx="0.00" cy="0.00" transform="translate(569.25,294.29) rotate(-125.6)" rx="20.48" ry="15.89"/>
<path xmlns="http://www.w3.org/2000/svg" fill="#1b201e" d="   M 655.11 363.59   C 659.01 376.95 657.97 392.08 648.08 402.01   C 641.98 408.13 632.59 410.47 625.13 406.06   C 618.90 402.38 615.11 394.53 613.65 387.58   C 611.25 376.08 611.60 362.73 617.92 352.64   C 622.52 345.31 629.85 341.04 638.33 343.62   C 646.39 346.06 652.76 355.52 655.11 363.59   Z"/>
<path xmlns="http://www.w3.org/2000/svg" fill="#dbac6c" d="   M 414.97 530.63   Q 408.38 547.88 398.52 561.26   Q 389.71 573.22 375.24 578.47   Q 374.10 578.89 372.15 579.08   Q 370.55 579.24 369.05 579.68   Q 346.48 563.80 330.56 541.99   Q 315.47 521.32 308.83 499.22   C 299.25 467.34 300.23 431.35 316.96 402.41   C 330.26 379.41 352.60 361.91 378.17 354.68   Q 383.74 353.11 388.36 352.81   A 0.34 0.33 -65.5 0 1 388.58 353.41   Q 381.51 359.04 374.87 364.87   Q 356.69 380.84 347.56 403.27   Q 339.77 422.43 341.84 445.06   C 344.83 477.84 368.60 504.84 396.11 520.40   Q 400.65 522.97 414.97 530.63   Z"/>
<path xmlns="http://www.w3.org/2000/svg" fill="#1b201e" d="   M 640.53 458.99   Q 638.11 462.77 634.37 465.03   C 627.98 468.88 617.35 470.77 614.12 461.63   C 612.01 455.64 612.95 448.77 616.30 443.52   C 619.65 438.27 625.49 434.52 631.80 433.93   C 641.46 433.00 644.22 443.44 643.41 450.86   Q 642.94 455.20 640.53 458.99   Z"/>
<ellipse xmlns="http://www.w3.org/2000/svg" fill="#1b201e" cx="0.00" cy="0.00" transform="translate(576.92,520.99) rotate(-43.0)" rx="35.36" ry="26.55"/>
<ellipse xmlns="http://www.w3.org/2000/svg" fill="#1b201e" cx="0.00" cy="0.00" transform="translate(495.04,568.84) rotate(-16.9)" rx="15.50" ry="12.86"/>
<ellipse xmlns="http://www.w3.org/2000/svg" fill="#1b201e" cx="0.00" cy="0.00" transform="translate(433.52,572.14) rotate(-170.1)" rx="15.59" ry="12.71"/>
<path xmlns="http://www.w3.org/2000/svg" fill="#1b201e" d="   M 756.39 746.24   A 0.55 0.55 0.0 0 1 757.21 746.27   L 764.80 755.39   A 1.03 1.02 -43.0 0 1 764.75 756.75   Q 748.67 773.70 725.05 769.89   C 705.03 766.66 691.61 749.55 690.36 729.67   C 687.98 691.77 728.91 669.94 759.53 692.43   Q 761.91 694.18 763.03 695.67   A 0.82 0.81 47.4 0 1 762.99 696.71   L 755.15 705.55   A 0.68 0.68 0.0 0 1 754.20 705.62   C 750.78 702.78 746.18 699.54 742.07 698.28   C 732.17 695.26 722.47 697.15 714.53 703.94   Q 704.18 712.79 704.39 727.74   C 704.63 744.83 717.20 757.98 734.66 757.09   C 743.88 756.62 750.27 752.57 756.39 746.24   Z"/>
<path xmlns="http://www.w3.org/2000/svg" fill="#1b201e" d="   M 292.75 698.46   A 0.41 0.40 -78.4 0 0 292.38 697.89   L 252.67 697.89   A 0.72 0.72 0.0 0 1 251.95 697.17   L 251.95 685.87   A 0.81 0.81 0.0 0 1 252.76 685.06   L 310.12 685.06   A 0.76 0.76 0.0 0 1 310.88 685.75   C 311.17 688.80 311.68 695.20 309.86 697.86   Q 289.91 726.95 270.22 755.82   A 0.24 0.23 -72.7 0 0 270.41 756.19   L 312.36 756.19   A 0.60 0.59 90.0 0 1 312.95 756.79   L 312.95 768.48   A 0.65 0.65 0.0 0 1 312.30 769.13   L 251.93 769.13   A 0.43 0.42 0.0 0 1 251.50 768.71   C 251.50 764.56 250.83 760.57 253.35 756.86   Q 288.26 705.40 292.29 699.29   Q 292.59 698.84 292.75 698.46   Z"/>
<path xmlns="http://www.w3.org/2000/svg" fill="#1b201e" d="   M 334.61 685.08   L 384.41 685.08   A 0.59 0.59 0.0 0 1 385.00 685.67   L 385.00 697.30   A 0.59 0.59 0.0 0 1 384.41 697.89   L 348.58 697.89   A 0.59 0.59 0.0 0 0 347.99 698.48   L 347.99 720.02   A 0.59 0.59 0.0 0 0 348.58 720.61   L 379.50 720.61   A 0.59 0.59 0.0 0 1 380.09 721.20   L 380.09 732.52   A 0.59 0.59 0.0 0 1 379.50 733.11   L 348.54 733.11   A 0.59 0.59 0.0 0 0 347.95 733.70   L 347.95 755.61   A 0.59 0.59 0.0 0 0 348.54 756.20   L 385.54 756.20   A 0.59 0.59 0.0 0 1 386.13 756.79   L 386.13 768.57   A 0.59 0.59 0.0 0 1 385.54 769.16   L 334.61 769.16   A 0.59 0.59 0.0 0 1 334.02 768.57   L 334.02 685.67   A 0.59 0.59 0.0 0 1 334.61 685.08   Z"/>
<path xmlns="http://www.w3.org/2000/svg" fill="#1b201e" d="   M 436.92 731.06   Q 435.23 728.73 421.76 710.14   A 0.32 0.32 0.0 0 0 421.17 710.33   L 421.17 768.52   A 0.59 0.59 0.0 0 1 420.58 769.11   L 408.03 769.11   A 0.61 0.61 0.0 0 1 407.42 768.50   L 407.42 685.48   A 0.58 0.57 89.5 0 1 407.98 684.90   Q 410.40 684.88 417.65 684.87   Q 419.66 684.87 420.67 685.51   A 1.81 1.59 84.5 0 1 421.14 685.95   C 428.82 696.55 437.74 709.21 447.75 722.99   Q 449.44 725.31 462.91 743.90   A 0.32 0.32 0.0 0 0 463.49 743.72   L 463.49 685.53   A 0.59 0.59 0.0 0 1 464.08 684.94   L 476.63 684.94   A 0.61 0.61 0.0 0 1 477.24 685.55   L 477.24 768.57   A 0.58 0.57 89.5 0 1 476.68 769.15   Q 474.26 769.17 467.01 769.18   Q 465.00 769.18 463.99 768.54   A 1.81 1.59 84.5 0 1 463.52 768.10   C 455.84 757.50 446.92 744.84 436.92 731.06   Z"/>
<path xmlns="http://www.w3.org/2000/svg" fill="#1b201e" d="   M 552.88 769.16   L 502.60 769.16   A 0.32 0.32 0.0 0 1 502.28 768.84   L 502.28 685.36   A 0.32 0.32 0.0 0 1 502.60 685.04   L 552.00 685.04   A 0.32 0.32 0.0 0 1 552.32 685.36   L 552.32 697.59   A 0.32 0.32 0.0 0 1 552.00 697.91   L 516.43 697.91   A 0.32 0.32 0.0 0 0 516.11 698.23   L 516.11 720.31   A 0.32 0.32 0.0 0 0 516.43 720.63   L 547.27 720.63   A 0.32 0.32 0.0 0 1 547.59 720.95   L 547.59 732.79   A 0.32 0.32 0.0 0 1 547.27 733.11   L 516.41 733.11   A 0.32 0.32 0.0 0 0 516.09 733.43   L 516.09 755.88   A 0.32 0.32 0.0 0 0 516.41 756.20   L 552.88 756.20   A 0.32 0.32 0.0 0 1 553.20 756.52   L 553.20 768.84   A 0.32 0.32 0.0 0 1 552.88 769.16   Z"/>
<path xmlns="http://www.w3.org/2000/svg" fill="#1b201e" d="   M 603.94 685.07   Q 606.43 685.07 637.22 684.95   A 0.36 0.35 0.2 0 1 637.57 685.30   L 637.57 697.27   A 0.59 0.59 0.0 0 1 636.98 697.86   L 611.75 697.86   A 0.81 0.80 -0.0 0 0 610.94 698.66   L 610.94 768.87   A 0.25 0.25 0.0 0 1 610.69 769.12   Q 607.44 769.16 604.08 769.17   Q 600.72 769.18 597.47 769.15   A 0.25 0.25 0.0 0 1 597.22 768.89   L 596.98 698.68   A 0.81 0.80 -0.2 0 0 596.17 697.89   L 570.94 697.97   A 0.59 0.59 0.0 0 1 570.35 697.38   L 570.31 685.41   A 0.36 0.35 -0.4 0 1 570.66 685.06   Q 601.44 685.08 603.94 685.07   Z"/>
<rect xmlns="http://www.w3.org/2000/svg" fill="#1b201e" x="655.91" y="685.07" width="14.00" height="84.14" rx="0.77"/>
<path xmlns="http://www.w3.org/2000/svg" fill="#1b201e" d="   M 690.58 820.91   C 687.40 815.41 682.37 812.91 676.12 814.82   Q 673.68 815.56 672.51 817.45   C 669.30 822.60 673.79 826.29 678.25 827.75   C 686.50 830.44 698.12 833.13 699.06 844.10   C 700.10 856.36 691.23 863.00 679.85 863.14   Q 669.74 863.26 662.07 855.73   Q 660.81 854.49 660.13 853.02   A 1.62 1.62 0.0 0 1 660.39 851.27   L 665.42 845.60   A 0.77 0.77 0.0 0 1 666.65 845.70   C 670.69 852.17 675.90 855.45 683.97 853.40   C 688.42 852.27 690.39 846.83 688.21 843.10   Q 687.01 841.04 682.86 839.45   C 674.92 836.42 663.36 834.22 661.79 823.88   C 660.16 813.05 667.33 805.91 677.70 805.10   Q 690.22 804.12 697.92 814.68   A 1.14 1.14 0.0 0 1 697.72 816.23   L 691.83 821.13   A 0.83 0.82 -34.9 0 1 690.58 820.91   Z"/>
<path xmlns="http://www.w3.org/2000/svg" fill="#1b201e" d="   M 353.68 841.75   L 341.29 841.75   A 0.59 0.59 0.0 0 1 340.70 841.16   L 340.70 833.39   A 0.55 0.54 90.0 0 1 341.24 832.84   L 363.43 832.84   A 0.49 0.49 0.0 0 1 363.92 833.33   Q 363.80 844.87 363.93 853.51   C 363.98 856.58 362.43 857.06 359.89 858.45   C 347.19 865.36 331.25 864.53 320.89 854.45   C 310.01 843.85 309.96 823.69 321.37 813.13   C 333.35 802.05 350.09 802.94 362.16 813.73   A 0.23 0.23 0.0 0 1 362.18 814.05   L 355.99 821.03   A 0.23 0.23 0.0 0 1 355.66 821.05   Q 350.71 816.61 345.21 815.47   Q 339.16 814.22 333.63 816.71   Q 323.79 821.13 322.86 832.60   C 321.48 849.69 339.05 857.57 353.06 851.30   A 1.86 1.86 0.0 0 0 354.17 849.60   L 354.17 842.24   A 0.49 0.49 0.0 0 0 353.68 841.75   Z"/>
<path xmlns="http://www.w3.org/2000/svg" fill="#1b201e" d="   M 638.92 833.96   A 29.20 29.20 0.0 0 1 609.72 863.16   A 29.20 29.20 0.0 0 1 580.52 833.96   A 29.20 29.20 0.0 0 1 609.72 804.76   A 29.20 29.20 0.0 0 1 638.92 833.96   Z   M 611.1242 814.2680   A 19.70 19.35 -86.0 0 0 590.4471 832.5702   A 19.70 19.35 -86.0 0 0 608.3758 853.5720   A 19.70 19.35 -86.0 0 0 629.0529 835.2698   A 19.70 19.35 -86.0 0 0 611.1242 814.2680   Z"/>
<path xmlns="http://www.w3.org/2000/svg" fill="#1b201e" d="   M 462.11 829.84   A 0.46 0.46 0.0 0 0 462.92 830.14   L 482.84 807.67   A 4.39 4.37 -69.2 0 1 486.12 806.19   L 496.64 806.19   A 0.41 0.40 -69.4 0 1 496.94 806.86   L 474.49 832.17   A 1.54 1.54 0.0 0 0 474.46 834.18   L 497.61 862.01   A 0.42 0.42 0.0 0 1 497.28 862.70   L 485.84 862.70   A 1.07 1.03 69.6 0 1 485.03 862.31   L 465.70 839.08   A 0.88 0.87 -40.3 0 0 464.45 838.98   C 461.63 841.43 462.03 843.46 462.03 847.60   Q 462.03 854.10 462.08 862.28   A 0.36 0.35 90.0 0 1 461.73 862.64   L 452.68 862.64   A 0.28 0.28 0.0 0 1 452.40 862.36   L 452.40 806.42   A 0.25 0.25 0.0 0 1 452.65 806.17   L 461.93 806.17   A 0.18 0.18 0.0 0 1 462.11 806.35   L 462.11 829.84   Z"/>
<path xmlns="http://www.w3.org/2000/svg" fill="#1b201e" d="   M 529.33 829.83   A 0.46 0.46 0.0 0 0 530.14 830.13   L 549.92 807.69   A 4.38 4.36 -69.3 0 1 553.19 806.20   L 563.67 806.17   A 0.40 0.40 0.0 0 1 563.97 806.84   L 541.67 832.12   A 1.54 1.53 45.8 0 0 541.65 834.13   L 564.79 861.79   A 0.42 0.42 0.0 0 1 564.46 862.48   L 553.06 862.51   A 1.07 1.03 69.5 0 1 552.26 862.12   L 532.93 839.03   A 0.88 0.87 -40.4 0 0 531.69 838.94   C 528.88 841.38 529.29 843.41 529.30 847.53   Q 529.32 854.01 529.39 862.16   A 0.36 0.35 89.8 0 1 529.04 862.52   L 520.02 862.54   A 0.28 0.28 0.0 0 1 519.74 862.26   L 519.59 806.53   A 0.25 0.25 0.0 0 1 519.84 806.28   L 529.08 806.25   A 0.18 0.18 0.0 0 1 529.26 806.43   L 529.33 829.83   Z"/>
<path xmlns="http://www.w3.org/2000/svg" fill="#1b201e" d="   M 421.73 829.89   L 421.73 838.11   A 0.39 0.39 0.0 0 1 421.34 838.50   L 399.87 838.50   A 0.39 0.39 0.0 0 0 399.48 838.89   L 399.48 852.98   A 0.39 0.39 0.0 0 0 399.87 853.37   L 425.62 853.37   A 0.39 0.39 0.0 0 1 426.01 853.76   L 426.01 862.14   A 0.39 0.39 0.0 0 1 425.62 862.53   L 390.31 862.53   A 0.39 0.39 0.0 0 1 389.92 862.14   L 389.92 806.59   A 0.39 0.39 0.0 0 1 390.31 806.20   L 424.63 806.20   A 0.39 0.39 0.0 0 1 425.02 806.59   L 425.02 815.19   A 0.39 0.39 0.0 0 1 424.63 815.58   L 399.89 815.58   A 0.39 0.39 0.0 0 0 399.50 815.97   L 399.50 829.11   A 0.39 0.39 0.0 0 0 399.89 829.50   L 421.34 829.50   A 0.39 0.39 0.0 0 1 421.73 829.89   Z"/>
<ellipse xmlns="http://www.w3.org/2000/svg" fill="#f9f2e9" cx="0.00" cy="0.00" transform="translate(609.75,833.92) rotate(-86.0)" rx="19.70" ry="19.35"/>
</g></g></g></g></svg>