<svg xmlns="http://www.w3.org/2000/svg" direction="ltr" width="1024" height="1024" viewBox="10183.035689841481 -830.4919236808014 1024 1024" stroke-linecap="round" stroke-linejoin="round" style="background-color: transparent;" data-color-mode="light" class="tl-container tl-theme__force-sRGB tl-theme__light"><defs/><g transform="matrix(1, 0, 0, 1, 10183.0357, -830.4919)" opacity="1"><g data-lovart-layer-name="SVG 2"><g transform="scale(1, 1)"><g>
<g xmlns="http://www.w3.org/2000/svg" stroke-width="2.00" fill="none" stroke-linecap="butt">
<path stroke="#8b8a85" vector-effect="non-scaling-stroke" d="   M 509.30 587.25   A 1.11 1.11 0.0 0 1 509.60 588.98   Q 497.24 602.55 479.87 609.68   C 454.39 620.14 423.45 616.08 398.08 604.66   C 362.98 588.85 334.42 560.33 323.85 523.33   C 315.86 495.39 320.90 464.14 334.91 438.43   C 344.93 420.06 359.79 406.44 376.29 393.13   C 376.96 392.58 378.33 391.06 378.67 390.36   A 2.60 2.59 -59.9 0 0 377.81 387.09   C 369.56 381.41 353.20 383.20 344.17 385.50   C 313.36 393.35 286.94 412.39 269.17 438.73   C 249.59 467.76 241.98 502.80 244.76 537.80   Q 248.19 580.96 271.10 618.48   Q 291.88 652.52 322.67 676.99   C 341.16 691.69 360.46 703.60 381.89 713.13   C 421.67 730.81 466.54 741.03 510.16 740.02   C 538.70 739.37 566.30 735.51 592.56 727.05   C 637.10 712.69 678.14 688.47 712.16 655.46   C 753.39 615.45 781.26 559.89 787.12 502.50   Q 789.51 479.10 788.80 464.52   Q 787.89 445.72 786.76 436.02   Q 781.18 388.36 758.17 341.83   Q 732.98 290.88 692.85 254.51   Q 675.08 238.41 655.32 227.29   Q 631.16 213.70 598.50 200.79   Q 545.40 179.81 487.24 173.58   Q 456.58 170.30 427.89 173.15   Q 402.47 175.68 381.95 187.49   C 365.27 197.09 350.18 210.35 335.90 223.05   C 327.20 230.78 316.05 239.09 306.64 247.13   Q 292.59 259.14 281.95 272.73   C 279.43 275.95 276.10 281.33 274.92 284.37   C 268.78 300.27 278.01 310.85 291.46 317.85   C 311.08 328.07 333.17 333.51 355.25 338.02   Q 358.56 338.70 393.31 344.70   Q 405.69 346.84 417.75 347.81   Q 422.70 348.21 436.65 348.20   C 446.15 348.19 456.90 347.15 465.99 347.18   Q 476.88 347.20 484.10 350.85   C 491.27 354.47 498.39 361.16 499.00 369.31   Q 499.98 382.39 492.01 392.93   C 490.31 395.18 487.23 397.13 484.65 395.27   Q 482.25 393.54 481.29 392.60   Q 474.63 386.13 467.52 379.38   C 462.93 375.03 455.68 369.64 449.30 369.93   C 441.26 370.30 431.00 380.05 438.71 388.12   Q 441.07 390.59 442.66 391.73   Q 451.06 397.73 461.92 404.52   Q 464.54 406.16 465.74 407.44   A 2.51 2.51 0.0 0 1 465.64 410.98   Q 463.75 412.77 460.44 413.38   C 449.58 415.40 421.49 411.95 423.92 432.78   C 425.39 445.40 444.42 441.64 451.82 439.32   Q 452.08 439.23 464.97 435.69   C 466.54 435.26 468.85 434.91 469.98 436.47   C 471.87 439.08 469.91 442.19 468.21 444.46   Q 459.30 456.35 458.83 457.08   C 455.35 462.45 452.35 469.53 457.89 474.65   Q 463.18 479.54 471.13 477.57   Q 474.72 476.69 477.61 472.86   Q 477.88 472.49 486.34 460.37   C 490.81 453.95 499.32 444.92 507.39 444.24   Q 509.34 444.08 512.76 445.55   C 527.09 451.72 542.69 448.60 556.53 442.17   A 2.41 2.41 0.0 0 1 559.60 443.10   C 562.51 447.81 563.75 455.19 564.31 460.73   Q 566.27 480.00 563.08 499.11   Q 562.66 501.64 561.64 503.05   A 2.44 2.43 30.0 0 1 558.67 503.84   Q 556.45 502.84 550.79 500.00   C 539.18 494.19 526.28 493.06 514.49 498.42   C 500.75 504.68 490.84 515.35 484.35 528.59   Q 481.88 533.62 477.78 543.01   Q 476.70 545.48 474.59 546.62   A 2.85 2.85 0.0 0 1 471.31 546.23   Q 469.80 544.85 468.89 543.62   Q 463.72 536.61 454.12 525.71   C 447.38 518.05 435.45 510.88 425.30 515.36   Q 420.22 517.61 420.89 523.63   C 421.51 529.18 425.71 533.92 429.78 537.22   C 439.88 545.39 445.75 549.81 451.87 556.20   Q 453.17 557.56 453.48 558.88   A 1.70 1.69 -10.5 0 1 452.05 560.95   Q 450.01 561.23 446.87 560.61   Q 431.55 557.58 424.76 556.79   C 413.49 555.49 403.66 555.83 403.92 569.33   C 404.05 576.14 411.39 579.77 417.34 580.46   Q 430.05 581.93 444.53 581.99   C 447.49 582.00 450.95 584.41 447.59 587.11   C 443.81 590.14 432.91 597.06 432.36 601.97   Q 431.89 606.15 436.80 608.01   C 450.76 613.32 462.50 603.50 473.46 596.23   Q 478.82 592.66 482.64 591.39   Q 494.84 587.32 507.77 586.86   Q 508.52 586.83 509.30 587.25"/>
<path stroke="#7d6842" vector-effect="non-scaling-stroke" d="   M 396.34 620.17   C 347.89 600.32 309.45 556.17 306.10 502.34   C 303.88 466.44 316.42 432.41 341.42 406.43   Q 344.56 403.16 348.54 400.01   A 0.96 0.95 -57.5 0 0 348.17 398.33   Q 347.92 398.28 347.13 398.44   Q 341.26 399.62 331.87 404.19   C 305.12 417.21 283.57 439.20 271.48 466.26   C 257.37 497.84 256.21 534.71 265.04 567.54   C 277.33 613.18 309.78 652.75 350.16 678.40"/>
<path stroke="#8b8a85" vector-effect="non-scaling-stroke" d="   M 350.16 678.40   Q 356.62 683.10 363.99 687.30   C 395.81 705.39 431.63 716.38 468.24 721.80   C 490.19 725.04 513.03 724.67 535.24 722.85   A 0.86 0.86 0.0 0 0 536.03 722.00   Q 536.08 717.28 536.50 712.01   C 539.18 678.01 576.50 655.57 608.01 656.93   C 627.08 657.75 638.72 668.34 645.10 685.57   A 1.02 1.02 0.0 0 0 646.57 686.10   Q 681.81 665.69 710.47 636.01   A 1.51 1.50 -47.0 0 0 710.40 633.85   Q 686.49 612.25 688.47 579.47   C 690.13 552.04 703.65 524.57 726.87 509.18   Q 743.99 497.83 764.17 501.31   Q 765.69 501.57 770.29 502.67   A 1.01 1.01 0.0 0 0 771.53 501.77   Q 774.35 470.14 771.97 443.50   Q 771.96 443.34 771.79 442.49   A 0.76 0.75 78.8 0 0 770.91 441.90   Q 758.37 444.33 746.02 441.89   C 731.86 439.10 720.04 429.27 712.18 417.58   C 701.83 402.19 700.42 381.45 711.26 366.03   C 718.42 355.85 730.11 351.42 742.32 348.39   A 1.03 1.02 -19.2 0 0 743.01 346.97   Q 731.66 322.29 715.12 300.73   A 0.77 0.77 0.0 0 0 713.94 300.68   C 702.49 313.32 686.45 320.56 669.42 319.09   C 650.62 317.47 634.88 307.02 623.42 292.03   Q 616.58 283.08 614.46 274.09   C 610.68 258.16 614.80 241.17 621.96 226.84   A 1.14 1.13 -62.6 0 0 621.49 225.34   C 606.93 217.37 591.21 211.18 575.38 205.04   A 0.88 0.88 0.0 0 0 574.19 205.76   Q 571.69 227.28 557.74 245.36   Q 548.51 257.33 536.15 267.79   C 532.50 270.88 528.55 275.41 526.58 278.59   C 516.39 294.99 510.83 311.23 502.48 332.28   A 2.31 2.31 0.0 0 0 503.24 334.98   C 511.61 341.24 519.56 347.19 524.34 356.82   C 532.14 372.55 525.85 387.04 519.04 401.54   Q 518.00 403.77 517.42 406.27   C 516.48 410.35 524.90 411.96 527.50 412.55   Q 535.90 414.45 543.89 410.38   Q 552.83 405.82 553.79 405.28   C 559.58 402.04 567.49 401.64 573.74 404.45   C 586.90 410.37 594.81 423.90 597.41 438.03   Q 602.12 463.66 597.07 494.07   Q 595.74 502.05 592.31 510.60   C 588.48 520.14 578.91 536.90 566.66 534.93   Q 564.74 534.62 561.65 532.48   C 550.52 524.72 532.37 515.11 518.84 522.56   Q 513.63 525.43 511.09 528.86   C 502.28 540.72 499.41 556.45 498.38 571.10   A 0.37 0.37 0.0 0 0 498.84 571.48   Q 512.33 568.13 523.49 565.94   C 529.70 564.73 529.92 573.68 529.41 577.49   Q 528.14 586.93 522.52 595.29   C 510.04 613.86 489.90 624.93 468.20 628.94   Q 438.10 634.50 408.33 624.34   Q 402.22 622.25 396.34 620.17"/>
<path stroke="#f2d5aa" vector-effect="non-scaling-stroke" d="   M 350.16 678.40   Q 356.92 675.04 363.33 669.08   Q 385.70 648.28 396.34 620.17"/>
<path stroke="#8b8a85" vector-effect="non-scaling-stroke" d="   M 388.1755 250.0244   A 20.69 20.36 -134.9 0 0 388.3582 279.0515   A 20.69 20.36 -134.9 0 0 417.3845 279.3356   A 20.69 20.36 -134.9 0 0 417.2018 250.3085   A 20.69 20.36 -134.9 0 0 388.1755 250.0244"/>
<path stroke="#8b8a85" vector-effect="non-scaling-stroke" d="   M 553.6484 316.1006   A 27.56 21.81 -135.9 0 0 558.2621 350.9423   A 27.56 21.81 -135.9 0 0 593.2316 354.4594   A 27.56 21.81 -135.9 0 0 588.6179 319.6177   A 27.56 21.81 -135.9 0 0 553.6484 316.1006"/>
<path stroke="#8b8a85" vector-effect="non-scaling-stroke" d="   M 653.30 456.37   C 665.46 457.97 674.36 447.96 676.36 436.84   C 679.04 421.99 673.55 406.28 663.90 394.90   Q 653.87 383.08 639.08 383.86   C 631.44 384.26 626.56 387.68 622.35 393.89   Q 617.38 401.23 618.10 410.20   Q 619.97 433.41 637.59 448.86   Q 644.91 455.27 653.30 456.37"/>
<path stroke="#8b8a85" vector-effect="non-scaling-stroke" d="   M 671.4436 500.9365   A 28.38 20.88 -48.8 0 0 637.0396 508.5366   A 28.38 20.88 -48.8 0 0 634.0564 543.6435   A 28.38 20.88 -48.8 0 0 668.4604 536.0434   A 28.38 20.88 -48.8 0 0 671.4436 500.9365"/>
<path stroke="#8b8a85" vector-effect="non-scaling-stroke" d="   M 567.30 579.62   Q 558.64 587.40 555.10 598.93   C 550.30 614.56 557.87 630.94 576.01 630.38   C 586.01 630.07 595.31 625.65 602.70 619.01   C 610.09 612.36 615.48 603.59 616.85 593.68   C 619.33 575.70 603.85 566.43 587.80 569.54   Q 575.95 571.84 567.30 579.62"/>
<path stroke="#8b8a85" vector-effect="non-scaling-stroke" d="   M 508.3675 657.1426   A 20.03 17.08 -35.1 0 0 482.1589 654.6860   A 20.03 17.08 -35.1 0 0 475.5925 680.1774   A 20.03 17.08 -35.1 0 0 501.8011 682.6340   A 20.03 17.08 -35.1 0 0 508.3675 657.1426"/>
<path stroke="#8b8a85" vector-effect="non-scaling-stroke" d="   M 440.7992 666.7655   A 16.08 14.95 -8.6 0 0 422.6644 654.3881   A 16.08 14.95 -8.6 0 0 409.0008 671.5745   A 16.08 14.95 -8.6 0 0 427.1356 683.9519   A 16.08 14.95 -8.6 0 0 440.7992 666.7655"/>
</g>
<path xmlns="http://www.w3.org/2000/svg" fill="#fff7ed" d="   M 1024.00 0.00   L 1024.00 1024.00   L 0.00 1024.00   L 0.00 0.00   L 1024.00 0.00   Z   M 509.30 587.25   A 1.11 1.11 0.0 0 1 509.60 588.98   Q 497.24 602.55 479.87 609.68   C 454.39 620.14 423.45 616.08 398.08 604.66   C 362.98 588.85 334.42 560.33 323.85 523.33   C 315.86 495.39 320.90 464.14 334.91 438.43   C 344.93 420.06 359.79 406.44 376.29 393.13   C 376.96 392.58 378.33 391.06 378.67 390.36   A 2.60 2.59 -59.9 0 0 377.81 387.09   C 369.56 381.41 353.20 383.20 344.17 385.50   C 313.36 393.35 286.94 412.39 269.17 438.73   C 249.59 467.76 241.98 502.80 244.76 537.80   Q 248.19 580.96 271.10 618.48   Q 291.88 652.52 322.67 676.99   C 341.16 691.69 360.46 703.60 381.89 713.13   C 421.67 730.81 466.54 741.03 510.16 740.02   C 538.70 739.37 566.30 735.51 592.56 727.05   C 637.10 712.69 678.14 688.47 712.16 655.46   C 753.39 615.45 781.26 559.89 787.12 502.50   Q 789.51 479.10 788.80 464.52   Q 787.89 445.72 786.76 436.02   Q 781.18 388.36 758.17 341.83   Q 732.98 290.88 692.85 254.51   Q 675.08 238.41 655.32 227.29   Q 631.16 213.70 598.50 200.79   Q 545.40 179.81 487.24 173.58   Q 456.58 170.30 427.89 173.15   Q 402.47 175.68 381.95 187.49   C 365.27 197.09 350.18 210.35 335.90 223.05   C 327.20 230.78 316.05 239.09 306.64 247.13   Q 292.59 259.14 281.95 272.73   C 279.43 275.95 276.10 281.33 274.92 284.37   C 268.78 300.27 278.01 310.85 291.46 317.85   C 311.08 328.07 333.17 333.51 355.25 338.02   Q 358.56 338.70 393.31 344.70   Q 405.69 346.84 417.75 347.81   Q 422.70 348.21 436.65 348.20   C 446.15 348.19 456.90 347.15 465.99 347.18   Q 476.88 347.20 484.10 350.85   C 491.27 354.47 498.39 361.16 499.00 369.31   Q 499.98 382.39 492.01 392.93   C 490.31 395.18 487.23 397.13 484.65 395.27   Q 482.25 393.54 481.29 392.60   Q 474.63 386.13 467.52 379.38   C 462.93 375.03 455.68 369.64 449.30 369.93   C 441.26 370.30 431.00 380.05 438.71 388.12   Q 441.07 390.59 442.66 391.73   Q 451.06 397.73 461.92 404.52   Q 464.54 406.16 465.74 407.44   A 2.51 2.51 0.0 0 1 465.64 410.98   Q 463.75 412.77 460.44 413.38   C 449.58 415.40 421.49 411.95 423.92 432.78   C 425.39 445.40 444.42 441.64 451.82 439.32   Q 452.08 439.23 464.97 435.69   C 466.54 435.26 468.85 434.91 469.98 436.47   C 471.87 439.08 469.91 442.19 468.21 444.46   Q 459.30 456.35 458.83 457.08   C 455.35 462.45 452.35 469.53 457.89 474.65   Q 463.18 479.54 471.13 477.57   Q 474.72 476.69 477.61 472.86   Q 477.88 472.49 486.34 460.37   C 490.81 453.95 499.32 444.92 507.39 444.24   Q 509.34 444.08 512.76 445.55   C 527.09 451.72 542.69 448.60 556.53 442.17   A 2.41 2.41 0.0 0 1 559.60 443.10   C 562.51 447.81 563.75 455.19 564.31 460.73   Q 566.27 480.00 563.08 499.11   Q 562.66 501.64 561.64 503.05   A 2.44 2.43 30.0 0 1 558.67 503.84   Q 556.45 502.84 550.79 500.00   C 539.18 494.19 526.28 493.06 514.49 498.42   C 500.75 504.68 490.84 515.35 484.35 528.59   Q 481.88 533.62 477.78 543.01   Q 476.70 545.48 474.59 546.62   A 2.85 2.85 0.0 0 1 471.31 546.23   Q 469.80 544.85 468.89 543.62   Q 463.72 536.61 454.12 525.71   C 447.38 518.05 435.45 510.88 425.30 515.36   Q 420.22 517.61 420.89 523.63   C 421.51 529.18 425.71 533.92 429.78 537.22   C 439.88 545.39 445.75 549.81 451.87 556.20   Q 453.17 557.56 453.48 558.88   A 1.70 1.69 -10.5 0 1 452.05 560.95   Q 450.01 561.23 446.87 560.61   Q 431.55 557.58 424.76 556.79   C 413.49 555.49 403.66 555.83 403.92 569.33   C 404.05 576.14 411.39 579.77 417.34 580.46   Q 430.05 581.93 444.53 581.99   C 447.49 582.00 450.95 584.41 447.59 587.11   C 443.81 590.14 432.91 597.06 432.36 601.97   Q 431.89 606.15 436.80 608.01   C 450.76 613.32 462.50 603.50 473.46 596.23   Q 478.82 592.66 482.64 591.39   Q 494.84 587.32 507.77 586.86   Q 508.52 586.83 509.30 587.25   Z"/>
<path xmlns="http://www.w3.org/2000/svg" fill="#161d1d" d="   M 509.30 587.25   Q 508.52 586.83 507.77 586.86   Q 494.84 587.32 482.64 591.39   Q 478.82 592.66 473.46 596.23   C 462.50 603.50 450.76 613.32 436.80 608.01   Q 431.89 606.15 432.36 601.97   C 432.91 597.06 443.81 590.14 447.59 587.11   C 450.95 584.41 447.49 582.00 444.53 581.99   Q 430.05 581.93 417.34 580.46   C 411.39 579.77 404.05 576.14 403.92 569.33   C 403.66 555.83 413.49 555.49 424.76 556.79   Q 431.55 557.58 446.87 560.61   Q 450.01 561.23 452.05 560.95   A 1.70 1.69 -10.5 0 0 453.48 558.88   Q 453.17 557.56 451.87 556.20   C 445.75 549.81 439.88 545.39 429.78 537.22   C 425.71 533.92 421.51 529.18 420.89 523.63   Q 420.22 517.61 425.30 515.36   C 435.45 510.88 447.38 518.05 454.12 525.71   Q 463.72 536.61 468.89 543.62   Q 469.80 544.85 471.31 546.23   A 2.85 2.85 0.0 0 0 474.59 546.62   Q 476.70 545.48 477.78 543.01   Q 481.88 533.62 484.35 528.59   C 490.84 515.35 500.75 504.68 514.49 498.42   C 526.28 493.06 539.18 494.19 550.79 500.00   Q 556.45 502.84 558.67 503.84   A 2.44 2.43 30.0 0 0 561.64 503.05   Q 562.66 501.64 563.08 499.11   Q 566.27 480.00 564.31 460.73   C 563.75 455.19 562.51 447.81 559.60 443.10   A 2.41 2.41 0.0 0 0 556.53 442.17   C 542.69 448.60 527.09 451.72 512.76 445.55   Q 509.34 444.08 507.39 444.24   C 499.32 444.92 490.81 453.95 486.34 460.37   Q 477.88 472.49 477.61 472.86   Q 474.72 476.69 471.13 477.57   Q 463.18 479.54 457.89 474.65   C 452.35 469.53 455.35 462.45 458.83 457.08   Q 459.30 456.35 468.21 444.46   C 469.91 442.19 471.87 439.08 469.98 436.47   C 468.85 434.91 466.54 435.26 464.97 435.69   Q 452.08 439.23 451.82 439.32   C 444.42 441.64 425.39 445.40 423.92 432.78   C 421.49 411.95 449.58 415.40 460.44 413.38   Q 463.75 412.77 465.64 410.98   A 2.51 2.51 0.0 0 0 465.74 407.44   Q 464.54 406.16 461.92 404.52   Q 451.06 397.73 442.66 391.73   Q 441.07 390.59 438.71 388.12   C 431.00 380.05 441.26 370.30 449.30 369.93   C 455.68 369.64 462.93 375.03 467.52 379.38   Q 474.63 386.13 481.29 392.60   Q 482.25 393.54 484.65 395.27   C 487.23 397.13 490.31 395.18 492.01 392.93   Q 499.98 382.39 499.00 369.31   C 498.39 361.16 491.27 354.47 484.10 350.85   Q 476.88 347.20 465.99 347.18   C 456.90 347.15 446.15 348.19 436.65 348.20   Q 422.70 348.21 417.75 347.81   Q 405.69 346.84 393.31 344.70   Q 358.56 338.70 355.25 338.02   C 333.17 333.51 311.08 328.07 291.46 317.85   C 278.01 310.85 268.78 300.27 274.92 284.37   C 276.10 281.33 279.43 275.95 281.95 272.73   Q 292.59 259.14 306.64 247.13   C 316.05 239.09 327.20 230.78 335.90 223.05   C 350.18 210.35 365.27 197.09 381.95 187.49   Q 402.47 175.68 427.89 173.15   Q 456.58 170.30 487.24 173.58   Q 545.40 179.81 598.50 200.79   Q 631.16 213.70 655.32 227.29   Q 675.08 238.41 692.85 254.51   Q 732.98 290.88 758.17 341.83   Q 781.18 388.36 786.76 436.02   Q 787.89 445.72 788.80 464.52   Q 789.51 479.10 787.12 502.50   C 781.26 559.89 753.39 615.45 712.16 655.46   C 678.14 688.47 637.10 712.69 592.56 727.05   C 566.30 735.51 538.70 739.37 510.16 740.02   C 466.54 741.03 421.67 730.81 381.89 713.13   C 360.46 703.60 341.16 691.69 322.67 676.99   Q 291.88 652.52 271.10 618.48   Q 248.19 580.96 244.76 537.80   C 241.98 502.80 249.59 467.76 269.17 438.73   C 286.94 412.39 313.36 393.35 344.17 385.50   C 353.20 383.20 369.56 381.41 377.81 387.09   A 2.60 2.59 -59.9 0 1 378.67 390.36   C 378.33 391.06 376.96 392.58 376.29 393.13   C 359.79 406.44 344.93 420.06 334.91 438.43   C 320.90 464.14 315.86 495.39 323.85 523.33   C 334.42 560.33 362.98 588.85 398.08 604.66   C 423.45 616.08 454.39 620.14 479.87 609.68   Q 497.24 602.55 509.60 588.98   A 1.11 1.11 0.0 0 0 509.30 587.25   Z   M 396.34 620.17   C 347.89 600.32 309.45 556.17 306.10 502.34   C 303.88 466.44 316.42 432.41 341.42 406.43   Q 344.56 403.16 348.54 400.01   A 0.96 0.95 -57.5 0 0 348.17 398.33   Q 347.92 398.28 347.13 398.44   Q 341.26 399.62 331.87 404.19   C 305.12 417.21 283.57 439.20 271.48 466.26   C 257.37 497.84 256.21 534.71 265.04 567.54   C 277.33 613.18 309.78 652.75 350.16 678.40   Q 356.62 683.10 363.99 687.30   C 395.81 705.39 431.63 716.38 468.24 721.80   C 490.19 725.04 513.03 724.67 535.24 722.85   A 0.86 0.86 0.0 0 0 536.03 722.00   Q 536.08 717.28 536.50 712.01   C 539.18 678.01 576.50 655.57 608.01 656.93   C 627.08 657.75 638.72 668.34 645.10 685.57   A 1.02 1.02 0.0 0 0 646.57 686.10   Q 681.81 665.69 710.47 636.01   A 1.51 1.50 -47.0 0 0 710.40 633.85   Q 686.49 612.25 688.47 579.47   C 690.13 552.04 703.65 524.57 726.87 509.18   Q 743.99 497.83 764.17 501.31   Q 765.69 501.57 770.29 502.67   A 1.01 1.01 0.0 0 0 771.53 501.77   Q 774.35 470.14 771.97 443.50   Q 771.96 443.34 771.79 442.49   A 0.76 0.75 78.8 0 0 770.91 441.90   Q 758.37 444.33 746.02 441.89   C 731.86 439.10 720.04 429.27 712.18 417.58   C 701.83 402.19 700.42 381.45 711.26 366.03   C 718.42 355.85 730.11 351.42 742.32 348.39   A 1.03 1.02 -19.2 0 0 743.01 346.97   Q 731.66 322.29 715.12 300.73   A 0.77 0.77 0.0 0 0 713.94 300.68   C 702.49 313.32 686.45 320.56 669.42 319.09   C 650.62 317.47 634.88 307.02 623.42 292.03   Q 616.58 283.08 614.46 274.09   C 610.68 258.16 614.80 241.17 621.96 226.84   A 1.14 1.13 -62.6 0 0 621.49 225.34   C 606.93 217.37 591.21 211.18 575.38 205.04   A 0.88 0.88 0.0 0 0 574.19 205.76   Q 571.69 227.28 557.74 245.36   Q 548.51 257.33 536.15 267.79   C 532.50 270.88 528.55 275.41 526.58 278.59   C 516.39 294.99 510.83 311.23 502.48 332.28   A 2.31 2.31 0.0 0 0 503.24 334.98   C 511.61 341.24 519.56 347.19 524.34 356.82   C 532.14 372.55 525.85 387.04 519.04 401.54   Q 518.00 403.77 517.42 406.27   C 516.48 410.35 524.90 411.96 527.50 412.55   Q 535.90 414.45 543.89 410.38   Q 552.83 405.82 553.79 405.28   C 559.58 402.04 567.49 401.64 573.74 404.45   C 586.90 410.37 594.81 423.90 597.41 438.03   Q 602.12 463.66 597.07 494.07   Q 595.74 502.05 592.31 510.60   C 588.48 520.14 578.91 536.90 566.66 534.93   Q 564.74 534.62 561.65 532.48   C 550.52 524.72 532.37 515.11 518.84 522.56   Q 513.63 525.43 511.09 528.86   C 502.28 540.72 499.41 556.45 498.38 571.10   A 0.37 0.37 0.0 0 0 498.84 571.48   Q 512.33 568.13 523.49 565.94   C 529.70 564.73 529.92 573.68 529.41 577.49   Q 528.14 586.93 522.52 595.29   C 510.04 613.86 489.90 624.93 468.20 628.94   Q 438.10 634.50 408.33 624.34   Q 402.22 622.25 396.34 620.17   Z   M 388.1755 250.0244   A 20.69 20.36 -134.9 0 0 388.3582 279.0515   A 20.69 20.36 -134.9 0 0 417.3845 279.3356   A 20.69 20.36 -134.9 0 0 417.2018 250.3085   A 20.69 20.36 -134.9 0 0 388.1755 250.0244   Z"/>
<path xmlns="http://www.w3.org/2000/svg" fill="#fff7ed" d="   M 350.16 678.40   Q 356.92 675.04 363.33 669.08   Q 385.70 648.28 396.34 620.17   Q 402.22 622.25 408.33 624.34   Q 438.10 634.50 468.20 628.94   C 489.90 624.93 510.04 613.86 522.52 595.29   Q 528.14 586.93 529.41 577.49   C 529.92 573.68 529.70 564.73 523.49 565.94   Q 512.33 568.13 498.84 571.48   A 0.37 0.37 0.0 0 1 498.38 571.10   C 499.41 556.45 502.28 540.72 511.09 528.86   Q 513.63 525.43 518.84 522.56   C 532.37 515.11 550.52 524.72 561.65 532.48   Q 564.74 534.62 566.66 534.93   C 578.91 536.90 588.48 520.14 592.31 510.60   Q 595.74 502.05 597.07 494.07   Q 602.12 463.66 597.41 438.03   C 594.81 423.90 586.90 410.37 573.74 404.45   C 567.49 401.64 559.58 402.04 553.79 405.28   Q 552.83 405.82 543.89 410.38   Q 535.90 414.45 527.50 412.55   C 524.90 411.96 516.48 410.35 517.42 406.27   Q 518.00 403.77 519.04 401.54   C 525.85 387.04 532.14 372.55 524.34 356.82   C 519.56 347.19 511.61 341.24 503.24 334.98   A 2.31 2.31 0.0 0 1 502.48 332.28   C 510.83 311.23 516.39 294.99 526.58 278.59   C 528.55 275.41 532.50 270.88 536.15 267.79   Q 548.51 257.33 557.74 245.36   Q 571.69 227.28 574.19 205.76   A 0.88 0.88 0.0 0 1 575.38 205.04   C 591.21 211.18 606.93 217.37 621.49 225.34   A 1.14 1.13 -62.6 0 1 621.96 226.84   C 614.80 241.17 610.68 258.16 614.46 274.09   Q 616.58 283.08 623.42 292.03   C 634.88 307.02 650.62 317.47 669.42 319.09   C 686.45 320.56 702.49 313.32 713.94 300.68   A 0.77 0.77 0.0 0 1 715.12 300.73   Q 731.66 322.29 743.01 346.97   A 1.03 1.02 -19.2 0 1 742.32 348.39   C 730.11 351.42 718.42 355.85 711.26 366.03   C 700.42 381.45 701.83 402.19 712.18 417.58   C 720.04 429.27 731.86 439.10 746.02 441.89   Q 758.37 444.33 770.91 441.90   A 0.76 0.75 78.8 0 1 771.79 442.49   Q 771.96 443.34 771.97 443.50   Q 774.35 470.14 771.53 501.77   A 1.01 1.01 0.0 0 1 770.29 502.67   Q 765.69 501.57 764.17 501.31   Q 743.99 497.83 726.87 509.18   C 703.65 524.57 690.13 552.04 688.47 579.47   Q 686.49 612.25 710.40 633.85   A 1.51 1.50 -47.0 0 1 710.47 636.01   Q 681.81 665.69 646.57 686.10   A 1.02 1.02 0.0 0 1 645.10 685.57   C 638.72 668.34 627.08 657.75 608.01 656.93   C 576.50 655.57 539.18 678.01 536.50 712.01   Q 536.08 717.28 536.03 722.00   A 0.86 0.86 0.0 0 1 535.24 722.85   C 513.03 724.67 490.19 725.04 468.24 721.80   C 431.63 716.38 395.81 705.39 363.99 687.30   Q 356.62 683.10 350.16 678.40   Z   M 553.6484 316.1006   A 27.56 21.81 -135.9 0 0 558.2621 350.9423   A 27.56 21.81 -135.9 0 0 593.2316 354.4594   A 27.56 21.81 -135.9 0 0 588.6179 319.6177   A 27.56 21.81 -135.9 0 0 553.6484 316.1006   Z   M 653.30 456.37   C 665.46 457.97 674.36 447.96 676.36 436.84   C 679.04 421.99 673.55 406.28 663.90 394.90   Q 653.87 383.08 639.08 383.86   C 631.44 384.26 626.56 387.68 622.35 393.89   Q 617.38 401.23 618.10 410.20   Q 619.97 433.41 637.59 448.86   Q 644.91 455.27 653.30 456.37   Z   M 671.4436 500.9365   A 28.38 20.88 -48.8 0 0 637.0396 508.5366   A 28.38 20.88 -48.8 0 0 634.0564 543.6435   A 28.38 20.88 -48.8 0 0 668.4604 536.0434   A 28.38 20.88 -48.8 0 0 671.4436 500.9365   Z   M 567.30 579.62   Q 558.64 587.40 555.10 598.93   C 550.30 614.56 557.87 630.94 576.01 630.38   C 586.01 630.07 595.31 625.65 602.70 619.01   C 610.09 612.36 615.48 603.59 616.85 593.68   C 619.33 575.70 603.85 566.43 587.80 569.54   Q 575.95 571.84 567.30 579.62   Z   M 508.3675 657.1426   A 20.03 17.08 -35.1 0 0 482.1589 654.6860   A 20.03 17.08 -35.1 0 0 475.5925 680.1774   A 20.03 17.08 -35.1 0 0 501.8011 682.6340   A 20.03 17.08 -35.1 0 0 508.3675 657.1426   Z   M 440.7992 666.7655   A 16.08 14.95 -8.6 0 0 422.6644 654.3881   A 16.08 14.95 -8.6 0 0 409.0008 671.5745   A 16.08 14.95 -8.6 0 0 427.1356 683.9519   A 16.08 14.95 -8.6 0 0 440.7992 666.7655   Z"/>
<ellipse xmlns="http://www.w3.org/2000/svg" fill="#fff7ed" cx="0.00" cy="0.00" transform="translate(402.78,264.68) rotate(-134.9)" rx="20.69" ry="20.36"/>
<ellipse xmlns="http://www.w3.org/2000/svg" fill="#161d1d" cx="0.00" cy="0.00" transform="translate(573.44,335.28) rotate(-135.9)" rx="27.56" ry="21.81"/>
<path xmlns="http://www.w3.org/2000/svg" fill="#161d1d" d="   M 676.36 436.84   C 674.36 447.96 665.46 457.97 653.30 456.37   Q 644.91 455.27 637.59 448.86   Q 619.97 433.41 618.10 410.20   Q 617.38 401.23 622.35 393.89   C 626.56 387.68 631.44 384.26 639.08 383.86   Q 653.87 383.08 663.90 394.90   C 673.55 406.28 679.04 421.99 676.36 436.84   Z"/>
<path xmlns="http://www.w3.org/2000/svg" fill="#e4b366" d="   M 396.34 620.17   Q 385.70 648.28 363.33 669.08   Q 356.92 675.04 350.16 678.40   C 309.78 652.75 277.33 613.18 265.04 567.54   C 256.21 534.71 257.37 497.84 271.48 466.26   C 283.57 439.20 305.12 417.21 331.87 404.19   Q 341.26 399.62 347.13 398.44   Q 347.92 398.28 348.17 398.33   A 0.96 0.95 -57.5 0 1 348.54 400.01   Q 344.56 403.16 341.42 406.43   C 316.42 432.41 303.88 466.44 306.10 502.34   C 309.45 556.17 347.89 600.32 396.34 620.17   Z"/>
<ellipse xmlns="http://www.w3.org/2000/svg" fill="#161d1d" cx="0.00" cy="0.00" transform="translate(652.75,522.29) rotate(-48.8)" rx="28.38" ry="20.88"/>
<path xmlns="http://www.w3.org/2000/svg" fill="#161d1d" d="   M 602.70 619.01   C 595.31 625.65 586.01 630.07 576.01 630.38   C 557.87 630.94 550.30 614.56 555.10 598.93   Q 558.64 587.40 567.30 579.62   Q 575.95 571.84 587.80 569.54   C 603.85 566.43 619.33 575.70 616.85 593.68   C 615.48 603.59 610.09 612.36 602.70 619.01   Z"/>
<ellipse xmlns="http://www.w3.org/2000/svg" fill="#161d1d" cx="0.00" cy="0.00" transform="translate(491.98,668.66) rotate(-35.1)" rx="20.03" ry="17.08"/>
<ellipse xmlns="http://www.w3.org/2000/svg" fill="#161d1d" cx="0.00" cy="0.00" transform="translate(424.90,669.17) rotate(-8.6)" rx="16.08" ry="14.95"/>
</g></g></g></g></svg>